 <svg class="svg-logo" width="250" height="273" viewBox="0 0 250 273" fill="none" xmlns="http://www.w3.org/2000/svg">
        <path fill-rule="evenodd" clip-rule="evenodd" d="M193.125 0H56.875V86.25H8.14125e-06L0 272.5L56.875 272.5H193.125L250 272.5L250 86.25H193.125V0Z" fill="#0FA958"></path>
        <path fill-rule="evenodd" clip-rule="evenodd" d="M103.809 63.3749H99.5594V44.1216H91.6162V40.4932H111.883V44.1216H103.809V63.3749ZM119.422 63.3749H115.173V40.4932H119.422V49.7439H130.144V40.4932H134.394V63.3749H130.144V53.405H119.422V63.3749ZM140.327 63.3749H157.129V59.7465H144.577V53.3723H153.991V49.7766H144.577V44.1216H157.129V40.4932H140.327V63.3749ZM112.296 143.865C116.97 143.865 118.997 141.381 119.879 139.812V143.375H123.802V131.803H111.936V135.464H119.552C119.324 137.72 117.264 140.237 113.146 140.237C109.092 140.237 105.921 137.262 105.921 131.967C105.921 126.639 109.256 123.664 113.276 123.664C116.97 123.664 118.833 125.789 119.781 128.502L123.9 126.933C122.691 123.304 119.356 120.003 113.309 120.003C106.673 120.003 101.476 125.102 101.476 131.999C101.476 139.485 106.216 143.865 112.296 143.865ZM76.1362 143.375H71.8867V120.493H89.048V124.122H76.1362V130.627H86.4003V134.288H76.1362V143.375ZM97.0451 143.375H92.7957V120.493H97.0451V143.375ZM132.989 143.375H128.74V120.493H135.702L140.083 132.457C141.161 135.497 141.554 136.51 141.815 137.099C142.077 136.445 142.436 135.497 143.548 132.457L147.928 120.493H154.662V143.375H150.412V132.915V124.35L143.45 143.375H139.919L132.989 124.35V132.915V143.375ZM176.028 143.375H180.735L172.203 120.493H166.548L157.886 143.375H162.462L164.456 137.72H174.099L176.028 143.375ZM165.731 134.092L167.692 128.567C167.958 127.8 168.182 127.154 168.374 126.601C168.819 125.319 169.088 124.542 169.294 123.926L170.928 128.535L172.824 134.092H165.731ZM79.7355 238.24C85.9463 238.24 88.8555 235.102 88.8555 231.18C88.8555 227.224 85.8155 225.034 81.468 224.315L78.4934 223.792C76.3686 223.4 75.2572 222.517 75.2572 220.948C75.2572 219.314 76.4994 217.908 79.3759 217.908C82.5794 217.908 84.0177 219.837 84.6387 221.7L88.594 220.164C87.7114 217.385 84.9983 214.378 79.5067 214.378C74.0151 214.378 70.9097 217.451 70.9097 221.144C70.9097 225.23 73.5575 227.126 77.6108 227.813L80.52 228.303C83.2985 228.793 84.4426 229.839 84.4426 231.474C84.4426 233.337 83.0043 234.71 79.8009 234.71C76.2052 234.71 74.4073 232.389 73.7863 229.97L69.7656 231.507C70.7136 235.168 73.8843 238.24 79.7355 238.24ZM98.0909 237.75H102.34V218.497H110.414V214.868H90.1477V218.497H98.0909V237.75ZM135.169 226.342C135.169 233.304 130.494 238.24 123.27 238.24C116.046 238.24 111.372 233.304 111.372 226.342C111.372 219.412 116.079 214.378 123.27 214.378C130.429 214.378 135.169 219.412 135.169 226.342ZM115.817 226.342C115.817 231.082 118.596 234.612 123.27 234.612C127.944 234.612 130.69 231.082 130.69 226.342C130.69 221.537 127.944 218.006 123.27 218.006C118.596 218.006 115.817 221.537 115.817 226.342ZM139.625 237.75H143.875V228.728H148.255C151.197 228.728 152.537 229.741 152.962 232.52L153.746 237.75H158.323L157.277 232.16C156.721 229.022 155.152 227.617 152.243 227.257C155.119 226.734 157.93 224.838 157.93 220.981C157.93 217.418 155.119 214.868 150.281 214.868H139.625V237.75ZM143.875 225.165V218.497H149.53C151.785 218.497 153.485 219.543 153.485 221.831C153.485 224.119 151.785 225.165 149.53 225.165H143.875ZM179.666 237.75H162.864V214.868H179.666V218.497H167.114V224.152H176.528V227.747H167.114V234.122H179.666V237.75Z" fill="black"></path>
    </svg>  