 <svg class="svg-logo" width="251" height="273" viewBox="0 0 251 273" fill="none" xmlns="http://www.w3.org/2000/svg">
          <path d="M250.5 136.75C250.5 211.999 194.536 273 125.5 273C56.4644 273 0.5 211.999 0.5 136.75C0.5 61.5012 56.4644 0.5 125.5 0.5C194.536 0.5 250.5 61.5012 250.5 136.75Z" fill="#F24E1E"></path>
          <path fill-rule="evenodd" clip-rule="evenodd" d="M115.562 45.8724V41.6229L134.815 41.6229V33.6797H138.443V53.9464H134.815V45.8724L115.562 45.8724ZM115.562 61.4858V57.2364L138.443 57.2364V61.4858H129.193V72.2075H138.443V76.457H115.562V72.2075H125.532V61.4858L115.562 61.4858ZM115.562 82.3909V99.1926H119.19V86.6404H125.564V96.0546H129.16V86.6404H134.815V99.1926H138.443V82.3909H115.562ZM89.668 219.18C89.668 223.102 86.7588 226.24 80.548 226.24C74.6968 226.24 71.5261 223.168 70.5781 219.507L74.5988 217.97C75.2198 220.389 77.0177 222.71 80.6134 222.71C83.8168 222.71 85.2551 221.337 85.2551 219.474C85.2551 217.839 84.111 216.793 81.3325 216.303L78.4233 215.813C74.37 215.126 71.7222 213.23 71.7222 209.144C71.7222 205.451 74.8276 202.378 80.3192 202.378C85.8108 202.378 88.5239 205.385 89.4065 208.164L85.4512 209.7C84.8302 207.837 83.3919 205.908 80.1884 205.908C77.3119 205.908 76.0697 207.314 76.0697 208.948C76.0697 210.517 77.1811 211.4 79.3059 211.792L82.2805 212.315C86.628 213.034 89.668 215.224 89.668 219.18ZM103.153 225.75H98.9034V206.497H90.9602V202.868H111.227V206.497H103.153V225.75ZM124.083 226.24C131.307 226.24 135.981 221.304 135.981 214.342C135.981 207.412 131.241 202.378 124.083 202.378C116.891 202.378 112.184 207.412 112.184 214.342C112.184 221.304 116.858 226.24 124.083 226.24ZM124.083 222.612C119.408 222.612 116.63 219.082 116.63 214.342C116.63 209.537 119.408 206.006 124.083 206.006C128.757 206.006 131.503 209.537 131.503 214.342C131.503 219.082 128.757 222.612 124.083 222.612ZM144.687 225.75H140.438V202.868H151.094C155.932 202.868 158.743 205.418 158.743 208.981C158.743 212.838 155.932 214.734 153.055 215.257C155.964 215.617 157.534 217.022 158.089 220.16L159.135 225.75H154.559L153.774 220.52C153.349 217.741 152.009 216.728 149.067 216.728H144.687V225.75ZM144.687 206.497V213.165H150.342C152.598 213.165 154.297 212.119 154.297 209.831C154.297 207.543 152.598 206.497 150.342 206.497H144.687ZM163.677 225.75H180.479V222.122H167.926V215.747H177.34V212.152H167.926V206.497H180.479V202.868H163.677V225.75ZM120.379 151.562C119.497 153.131 117.47 155.615 112.796 155.615C106.716 155.615 101.976 151.235 101.976 143.749C101.976 136.852 107.173 131.753 113.809 131.753C119.856 131.753 123.191 135.054 124.4 138.683L120.281 140.252C119.333 137.539 117.47 135.414 113.776 135.414C109.756 135.414 106.421 138.389 106.421 143.717C106.421 149.012 109.592 151.987 113.646 151.987C117.764 151.987 119.824 149.47 120.052 147.214H112.436V143.553H124.302V155.125H120.379V151.562ZM72.3867 155.125H76.6362V146.038H86.9003V142.377H76.6362V135.872H89.548V132.243H72.3867V155.125ZM93.2957 155.125H97.5451V132.243H93.2957V155.125ZM129.24 155.125H133.489V144.665V136.1L140.419 155.125H143.95L150.912 136.1V144.665V155.125H155.162V132.243H148.428L144.048 144.207C142.936 147.247 142.577 148.195 142.315 148.849C142.054 148.26 141.661 147.247 140.583 144.207L136.202 132.243H129.24V155.125ZM181.235 155.125H176.528L174.599 149.47H164.956L162.962 155.125H158.386L167.048 132.243H172.703L181.235 155.125ZM168.192 140.317L166.231 145.842H173.324L171.428 140.285L169.794 135.676C169.588 136.292 169.319 137.069 168.874 138.351C168.682 138.904 168.458 139.55 168.192 140.317Z" fill="black"></path>
      </svg>