<svg class="svg-logo" width="250" height="273" viewBox="0 0 250 273" fill="none" xmlns="http://www.w3.org/2000/svg">
        <path fill-rule="evenodd" clip-rule="evenodd" d="M218.125 0.5H31.875V43.625H8.14125e-06L0 229.875H31.875V273H218.125V229.875H250L250 43.625H218.125V0.5Z" fill="#C7B9FF"></path>
        <path fill-rule="evenodd" clip-rule="evenodd" d="M103.809 53.2499H99.5594V33.9966H91.6162V30.3682H111.883V33.9966H103.809V53.2499ZM119.422 53.2499H115.173V30.3682H119.422V39.6189H130.144V30.3682H134.394V53.2499H130.144V43.28H119.422V53.2499ZM140.327 53.2499H157.129V49.6215H144.577V43.2473H153.991V39.6516H144.577V33.9966H157.129V30.3682H140.327V53.2499ZM228.374 98.8847V82.083H224.746V94.6352H218.371V85.221H214.776V94.6352H209.121V82.083H205.492V98.8847H228.374ZM228.374 117.874V122.124H205.492V111.468C205.492 106.63 208.042 103.819 211.605 103.819C215.462 103.819 217.358 106.63 217.881 109.506C218.241 106.597 219.646 105.028 222.784 104.472L228.374 103.426V108.003L223.144 108.787C220.365 109.212 219.352 110.552 219.352 113.494V117.874H228.374ZM209.121 112.219V117.874H215.789V112.219C215.789 109.964 214.743 108.264 212.455 108.264C210.167 108.264 209.121 109.964 209.121 112.219ZM228.864 138.479C228.864 131.255 223.928 126.581 216.966 126.581C210.036 126.581 205.002 131.32 205.002 138.479C205.002 145.67 210.036 150.377 216.966 150.377C223.928 150.377 228.864 145.703 228.864 138.479ZM225.236 138.479C225.236 143.153 221.706 145.932 216.966 145.932C212.161 145.932 208.63 143.153 208.63 138.479C208.63 133.805 212.161 131.059 216.966 131.059C221.706 131.059 225.236 133.805 225.236 138.479ZM228.374 159.409V163.658H209.121V171.601H205.492V151.335H209.121V159.409H228.374ZM221.804 172.894C225.726 172.894 228.864 175.803 228.864 182.014C228.864 187.865 225.792 191.035 222.131 191.983L220.594 187.963C223.013 187.342 225.334 185.544 225.334 181.948C225.334 178.745 223.961 177.306 222.098 177.306C220.463 177.306 219.417 178.451 218.927 181.229L218.437 184.138C217.75 188.192 215.854 190.839 211.768 190.839C208.075 190.839 205.002 187.734 205.002 182.242C205.002 176.751 208.009 174.038 210.788 173.155L212.324 177.11C210.461 177.731 208.532 179.17 208.532 182.373C208.532 185.25 209.938 186.492 211.572 186.492C213.141 186.492 214.024 185.38 214.416 183.256L214.939 180.281C215.658 175.934 217.848 172.894 221.804 172.894ZM83.0043 142.812C82.1217 144.381 80.0951 146.865 75.4207 146.865C69.3407 146.865 64.6009 142.485 64.6009 134.999C64.6009 128.102 69.7983 123.003 76.434 123.003C82.4813 123.003 85.8155 126.304 87.025 129.933L82.9063 131.502C81.9583 128.789 80.0951 126.664 76.4013 126.664C72.3807 126.664 69.0465 129.639 69.0465 134.967C69.0465 140.262 72.2172 143.237 76.2706 143.237C80.3893 143.237 82.4486 140.72 82.6775 138.464H75.0611V134.803H86.9269V146.375H83.0043V142.812ZM35.0117 146.375H39.2612V137.288H49.5253V133.627H39.2612V127.122H52.173V123.493H35.0117V146.375ZM55.9207 146.375H60.1701V123.493H55.9207V146.375ZM91.8649 146.375H96.1143V135.915V127.35L103.044 146.375H106.575L113.537 127.35V135.915V146.375H117.787V123.493H111.053L106.673 135.457C105.561 138.497 105.202 139.445 104.94 140.099C104.679 139.51 104.286 138.497 103.208 135.457L98.8274 123.493H91.8649V146.375ZM143.86 146.375H139.153L137.224 140.72H127.581L125.587 146.375H121.011L129.673 123.493H135.328L143.86 146.375ZM130.817 131.567L128.856 137.092H135.949L134.053 131.535L132.419 126.926C132.213 127.542 131.944 128.319 131.499 129.601C131.307 130.154 131.083 130.8 130.817 131.567Z" fill="black"></path>
    </svg>