<svg class="svg-logo current" width="250" height="273" viewBox="0 0 250 273" fill="none" xmlns="http://www.w3.org/2000/svg">
  <path fill-rule="evenodd" clip-rule="evenodd" d="M125 0H0V273H125H250L250 86L125 86V0Z" fill="#C7B9FF"></path>
  <path fill-rule="evenodd" clip-rule="evenodd" d="M41.5599 63.9999H37.3104V44.7466H29.3672V41.1182H49.6339V44.7466H41.5599V63.9999ZM57.1733 63.9999H52.9239V41.1182H57.1733V50.3689H67.895V41.1182H72.1445V63.9999H67.895V54.03H57.1733V63.9999ZM78.0784 63.9999H94.8801V60.3715H82.3279V53.9973H91.7421V50.4016H82.3279V44.7466H94.8801V41.1182H78.0784V63.9999ZM129.103 231.43C129.103 235.352 126.194 238.49 119.983 238.49C114.132 238.49 110.961 235.418 110.013 231.757L114.034 230.22C114.655 232.639 116.453 234.96 120.048 234.96C123.252 234.96 124.69 233.587 124.69 231.724C124.69 230.089 123.546 229.043 120.768 228.553L117.858 228.063C113.805 227.376 111.157 225.48 111.157 221.394C111.157 217.701 114.263 214.628 119.754 214.628C125.246 214.628 127.959 217.635 128.842 220.414L124.886 221.95C124.265 220.087 122.827 218.158 119.624 218.158C116.747 218.158 115.505 219.564 115.505 221.198C115.505 222.767 116.616 223.65 118.741 224.042L121.716 224.565C126.063 225.284 129.103 227.474 129.103 231.43ZM142.588 238H138.339V218.747H130.395V215.118H150.662V218.747H142.588V238ZM163.518 238.49C170.742 238.49 175.416 233.554 175.416 226.592C175.416 219.662 170.676 214.628 163.518 214.628C156.326 214.628 151.619 219.662 151.619 226.592C151.619 233.554 156.294 238.49 163.518 238.49ZM163.518 234.862C158.843 234.862 156.065 231.332 156.065 226.592C156.065 221.787 158.843 218.256 163.518 218.256C168.192 218.256 170.938 221.787 170.938 226.592C170.938 231.332 168.192 234.862 163.518 234.862ZM184.122 238H179.873V215.118H190.529C195.367 215.118 198.178 217.668 198.178 221.231C198.178 225.088 195.367 226.984 192.49 227.507C195.4 227.867 196.969 229.272 197.524 232.41L198.57 238H193.994L193.209 232.77C192.784 229.991 191.444 228.978 188.502 228.978H184.122V238ZM184.122 218.747V225.415H189.777C192.033 225.415 193.732 224.369 193.732 222.081C193.732 219.793 192.033 218.747 189.777 218.747H184.122ZM203.112 238H219.914V234.372H207.361V227.997H216.776V224.402H207.361V218.747H219.914V215.118H203.112V238ZM69 126.514V131.221L63.3449 133.15V142.793L69 144.787L69 149.363L46.1182 140.701V135.046L69 126.514ZM54.1922 139.557L59.7165 141.518V134.425L54.1595 136.321L49.5505 137.955C50.1664 138.16 50.9416 138.429 52.2203 138.873L52.2249 138.875L52.226 138.875C52.7783 139.067 53.4245 139.291 54.1922 139.557ZM69 178.509V174.26H58.5398H49.9755L69 167.33V163.799L49.9755 156.837H58.5398H69V152.587H46.1182V159.321L58.0821 163.701C61.1221 164.813 62.0701 165.172 62.7238 165.434C62.1355 165.695 61.1221 166.088 58.0821 167.166L46.1182 171.547V178.509H69ZM65.437 187.37C67.006 188.252 69.4903 190.279 69.4903 194.953C69.4903 201.033 65.1101 205.773 57.6245 205.773C50.7273 205.773 45.6279 200.576 45.6279 193.94C45.6279 187.893 48.9294 184.559 52.5578 183.349L54.1269 187.468C51.4137 188.416 49.289 190.279 49.289 193.973C49.289 197.993 52.2636 201.328 57.5918 201.328C62.8873 201.328 65.8619 198.157 65.8619 194.103C65.8619 189.985 63.3449 187.925 61.0894 187.697L61.0894 195.313H57.4284L57.4284 183.447H69V187.37H65.437ZM69 214.453V210.204H46.1182V214.453H69ZM69 235.362V231.113H59.9127V220.849H56.2516V231.113H49.7466V218.201H46.1183V235.362H69Z" fill="black"></path>
</svg>