<svg xmlns="http://www.w3.org/2000/svg"> 

 <!-- <symbol id="arrow-circle-up" viewBox="0 0 256 256">

  </symbol> -->
  <symbol id="jacket" viewBox="0 0 1124 612" width="1124" height="612"  xmlns:xlink="http://www.w3.org/1999/xlink"  fill="none">
  
   <defs>
     <pattern id="188d1671-d29a-4af9-815d-2e775ba8a897"
              patternUnits="objectBoundingBox"
              width="2"
              height="2">
       <image href="//store.figma.com/cdn/shop/files/figma-store_homepage-hero_01_1000x.jpg?v=1678222214"
              x="0"
              y="0"
              width="100%"
              height="100%"
              class="pattern-image"
              preserveAspectRatio="xMidYMid slice"></image>
     </pattern>
   </defs>
   <path d="M302.279 498.312L300 493.256L297.721 498.312C266.868 566.765 220.337 609.5 169 609.5C123.66 609.5 82.0782 576.193 51.6874 521.166C21.3451 466.227 2.5 390.159 2.5 306C2.5 221.841 21.3451 145.773 51.6874 90.834C82.0782 35.8068 123.66 2.5 169 2.5C220.337 2.5 266.868 45.2351 297.721 113.688L300 118.744L302.279 113.688C333.132 45.2351 379.663 2.5 431 2.5C482.337 2.5 528.868 45.2351 559.721 113.688L562 118.744L564.279 113.688C595.132 45.2351 641.663 2.5 693 2.5C744.337 2.5 790.868 45.2351 821.721 113.688L824 118.744L826.279 113.688C857.132 45.2351 903.663 2.5 955 2.5C1000.34 2.5 1041.92 35.8068 1072.31 90.834C1102.65 145.773 1121.5 221.841 1121.5 306C1121.5 390.159 1102.65 466.227 1072.31 521.166C1041.92 576.193 1000.34 609.5 955 609.5C903.663 609.5 857.132 566.765 826.279 498.312L824 493.256L821.721 498.312C790.868 566.765 744.337 609.5 693 609.5C641.663 609.5 595.132 566.765 564.279 498.312L562 493.256L559.721 498.312C528.868 566.765 482.337 609.5 431 609.5C379.663 609.5 333.132 566.765 302.279 498.312Z"
         fill="url(#188d1671-d29a-4af9-815d-2e775ba8a897)"></path>
 </symbol> 


  <symbol id="caret-down" viewBox="0 0 256 256">
  <!-- width="32" height="32" fill="#000000"-->
  <path d="M216.49,104.49l-80,80a12,12,0,0,1-17,0l-80-80a12,12,0,0,1,17-17L128,159l71.51-71.52a12,12,0,0,1,17,17Z"></path>
 </symbol> 

  <symbol id="caret-up" viewBox="0 0 256 256">
  <!-- width="32" height="32" fill="#000000"-->
 <path d="M216.49,168.49a12,12,0,0,1-17,0L128,97,56.49,168.49a12,12,0,0,1-17-17l80-80a12,12,0,0,1,17,0l80,80A12,12,0,0,1,216.49,168.49Z"></path>
</symbol> 

 <symbol id="list" viewBox="0 0 256 256">
<path d="M228,128a12,12,0,0,1-12,12H40a12,12,0,0,1,0-24H216A12,12,0,0,1,228,128ZM40,76H216a12,12,0,0,0,0-24H40a12,12,0,0,0,0,24ZM216,180H40a12,12,0,0,0,0,24H216a12,12,0,0,0,0-24Z"></path>
</symbol> 

<symbol id="magnifying-glass" viewBox="0 0 256 256">
<path d="M232.49,215.51,185,168a92.12,92.12,0,1,0-17,17l47.53,47.54a12,12,0,0,0,17-17ZM44,112a68,68,0,1,1,68,68A68.07,68.07,0,0,1,44,112Z"></path>
 </symbol> 

<symbol id="map-pin" viewBox="0 0 256 256">
<path d="M128,60a44,44,0,1,0,44,44A44.05,44.05,0,0,0,128,60Zm0,64a20,20,0,1,1,20-20A20,20,0,0,1,128,124Zm0-112a92.1,92.1,0,0,0-92,92c0,77.36,81.64,135.4,85.12,137.83a12,12,0,0,0,13.76,0,259,259,0,0,0,42.18-39C205.15,170.57,220,136.37,220,104A92.1,92.1,0,0,0,128,12Zm31.3,174.71A249.35,249.35,0,0,1,128,216.89a249.35,249.35,0,0,1-31.3-30.18C80,167.37,60,137.31,60,104a68,68,0,0,1,136,0C196,137.31,176,167.37,159.3,186.71Z"></path>
 </symbol> 

 <symbol id="minus" viewBox="0 0 256 256">
 <path d="M228,128a12,12,0,0,1-12,12H40a12,12,0,0,1,0-24H216A12,12,0,0,1,228,128Z"></path>
 </symbol> 
 
 <symbol id="plus" viewBox="0 0 256 256">
 <path d="M228,128a12,12,0,0,1-12,12H140v76a12,12,0,0,1-24,0V140H40a12,12,0,0,1,0-24h76V40a12,12,0,0,1,24,0v76h76A12,12,0,0,1,228,128Z"></path>
 </symbol> 
  
 <symbol id="close" viewBox="0 0 256 256">
<path d="M208.49,191.51a12,12,0,0,1-17,17L128,145,64.49,208.49a12,12,0,0,1-17-17L111,128,47.51,64.49a12,12,0,0,1,17-17L128,111l63.51-63.52a12,12,0,0,1,17,17L145,128Z"></path>
 </symbol> 
 
 </svg>