<svg xmlns="http://www.w3.org/2000/svg"> 
<!-- <symbol id="back-button" viewBox="0 0 28 28">
 </symbol> -->
 <symbol id="arrow-circle-up" viewBox="0 0 256 256">
  <!-- width="32" height="32" fill="#000000"-->
   <path d="M128,24A104,104,0,1,0,232,128,104.11,104.11,0,0,0,128,24Zm37.66,101.66a8,8,0,0,1-11.32,0L136,107.31V168a8,8,0,0,1-16,0V107.31l-18.34,18.35a8,8,0,0,1-11.32-11.32l32-32a8,8,0,0,1,11.32,0l32,32A8,8,0,0,1,165.66,125.66Z"></path>
  </symbol>

  <symbol id="caret-down" viewBox="0 0 256 256">
  <!-- width="32" height="32" fill="#000000"-->
  <path d="M216.49,104.49l-80,80a12,12,0,0,1-17,0l-80-80a12,12,0,0,1,17-17L128,159l71.51-71.52a12,12,0,0,1,17,17Z"></path>
 </symbol> 

  <symbol id="caret-up" viewBox="0 0 256 256">
  <!-- width="32" height="32" fill="#000000"-->
 <path d="M216.49,168.49a12,12,0,0,1-17,0L128,97,56.49,168.49a12,12,0,0,1-17-17l80-80a12,12,0,0,1,17,0l80,80A12,12,0,0,1,216.49,168.49Z"></path>
</symbol> 

 <symbol id="list" viewBox="0 0 256 256">
<path d="M228,128a12,12,0,0,1-12,12H40a12,12,0,0,1,0-24H216A12,12,0,0,1,228,128ZM40,76H216a12,12,0,0,0,0-24H40a12,12,0,0,0,0,24ZM216,180H40a12,12,0,0,0,0,24H216a12,12,0,0,0,0-24Z"></path>
</symbol> 

<symbol id="magnifying-glass" viewBox="0 0 256 256">
<path d="M232.49,215.51,185,168a92.12,92.12,0,1,0-17,17l47.53,47.54a12,12,0,0,0,17-17ZM44,112a68,68,0,1,1,68,68A68.07,68.07,0,0,1,44,112Z"></path>
 </symbol> 

<symbol id="map-pin" viewBox="0 0 256 256">
<path d="M128,60a44,44,0,1,0,44,44A44.05,44.05,0,0,0,128,60Zm0,64a20,20,0,1,1,20-20A20,20,0,0,1,128,124Zm0-112a92.1,92.1,0,0,0-92,92c0,77.36,81.64,135.4,85.12,137.83a12,12,0,0,0,13.76,0,259,259,0,0,0,42.18-39C205.15,170.57,220,136.37,220,104A92.1,92.1,0,0,0,128,12Zm31.3,174.71A249.35,249.35,0,0,1,128,216.89a249.35,249.35,0,0,1-31.3-30.18C80,167.37,60,137.31,60,104a68,68,0,0,1,136,0C196,137.31,176,167.37,159.3,186.71Z"></path>
 </symbol> 

 <symbol id="minus" viewBox="0 0 256 256">
 <path d="M228,128a12,12,0,0,1-12,12H40a12,12,0,0,1,0-24H216A12,12,0,0,1,228,128Z"></path>
 </symbol> 
 
 <symbol id="plus" viewBox="0 0 256 256">
 <path d="M228,128a12,12,0,0,1-12,12H140v76a12,12,0,0,1-24,0V140H40a12,12,0,0,1,0-24h76V40a12,12,0,0,1,24,0v76h76A12,12,0,0,1,228,128Z"></path>
 </symbol> 
  
 <symbol id="close" viewBox="0 0 256 256">
<path d="M208.49,191.51a12,12,0,0,1-17,17L128,145,64.49,208.49a12,12,0,0,1-17-17L111,128,47.51,64.49a12,12,0,0,1,17-17L128,111l63.51-63.52a12,12,0,0,1,17,17L145,128Z"></path>
 </symbol> 

  <symbol id="trash" viewBox="0 0 256 256">
<path d="M216,48H180V36A28,28,0,0,0,152,8H104A28,28,0,0,0,76,36V48H40a12,12,0,0,0,0,24h4V208a20,20,0,0,0,20,20H192a20,20,0,0,0,20-20V72h4a12,12,0,0,0,0-24ZM100,36a4,4,0,0,1,4-4h48a4,4,0,0,1,4,4V48H100Zm88,168H68V72H188ZM116,104v64a12,12,0,0,1-24,0V104a12,12,0,0,1,24,0Zm48,0v64a12,12,0,0,1-24,0V104a12,12,0,0,1,24,0Z"></path>
   </symbol> 
 </svg>