<svg xmlns="http://www.w3.org/2000/svg">
  <symbol id="logo-main"
              viewBox="0 0 221 18" >
      
<path d="M5.57377 17.1284H9.10383V3.79781H14.6776V0.871584H0V3.79781H5.57377V17.1284Z" fill="black"/>
<path d="M16.8686 17.1284H20.3987V10.2309H27.3659V17.1284H30.896V0.871584H27.3659V7.30464H20.3987V0.871584H16.8686V17.1284Z" fill="black"/>
<path d="M34.8083 17.1284H47.0938V14.2022H38.3384V10.2077H44.9572V7.32787H38.3384V3.79781H47.0938V0.871584H34.8083V17.1284Z" fill="black"/>
<path d="M55.6056 17.1284H59.1357V10.9508H66.3119V8.02459H59.1357V3.79781H68.1002V0.871584H55.6056V17.1284Z" fill="black"/>
<path d="M70.6196 17.1284H74.1497V0.871584H70.6196V17.1284Z" fill="black"/>
<path d="M84.7703 17.5C88.0449 17.5 89.4151 15.8743 90.0886 14.8292V17.1284H93.2703V8.76776H84.5613V11.694H89.8099C89.6009 13.0178 88.37 14.597 85.6064 14.597C82.9588 14.597 80.7525 12.5997 80.7525 9.06967C80.7525 5.51639 82.8195 3.42623 85.6993 3.42623C88.2307 3.42623 89.4151 4.91257 90.0422 6.70082L93.3632 5.46994C92.5039 2.8224 90.1118 0.5 85.6993 0.5C80.7758 0.5 77.0831 4.23907 77.0831 9.06967C77.0831 14.5041 80.7293 17.5 84.7703 17.5Z" fill="black"/>
<path d="M96.5425 17.1284H100.073V10.4399V3.89071L104.555 17.1284H107.69L112.219 3.86749V10.4399V17.1284H115.749V0.871584H110.175L107.458 8.79098C106.691 11.0437 106.436 11.7404 106.227 12.2514C106.041 11.7869 105.762 11.0437 104.996 8.79098L102.325 0.871584H96.5425V17.1284Z" fill="black"/>
<path d="M130.847 17.1284H134.749L128.594 0.871584H124.019L117.818 17.1284H121.604L122.928 13.3197H129.547L130.847 17.1284ZM123.95 10.3934L125.204 6.84016C125.854 4.98224 126.086 4.28552 126.272 3.70492L127.34 6.81694L128.548 10.3934H123.95Z" fill="black"/>
<path d="M147.874 17.5C152.635 17.5 154.725 15.1544 154.725 12.3675C154.725 9.37158 152.403 7.79235 149.036 7.32787L147.015 7.04918C145.691 6.86339 144.925 6.25956 144.925 5.30738C144.925 4.30874 145.598 3.31011 147.689 3.31011C149.756 3.31011 150.824 4.47131 151.312 5.98087L154.563 4.8429C153.866 2.59016 151.846 0.5 147.689 0.5C143.462 0.5 141.256 2.84563 141.256 5.44672C141.256 8.46585 143.253 9.88251 146.388 10.3238L148.409 10.6025C150.359 10.8811 151.056 11.6011 151.056 12.5997C151.056 13.7609 150.174 14.6899 147.874 14.6899C145.32 14.6899 144.089 12.9713 143.764 11.3689L140.443 12.4836C141.07 15.1544 143.346 17.5 147.874 17.5Z" fill="black"/>
<path d="M161.111 17.1284H164.641V3.79781H170.215V0.871584H155.538V3.79781H161.111V17.1284Z" fill="black"/>
<path d="M179.527 17.5C185.008 17.5 188.213 13.9235 188.213 9.04645C188.213 4.19262 184.938 0.5 179.527 0.5C174.116 0.5 170.841 4.19262 170.841 9.04645C170.841 13.9235 174.046 17.5 179.527 17.5ZM179.55 14.5738C176.368 14.5738 174.534 12.2049 174.534 9.02322C174.534 5.79508 176.368 3.42623 179.55 3.42623C182.709 3.42623 184.52 5.79508 184.52 9.02322C184.52 12.2049 182.709 14.5738 179.55 14.5738Z" fill="black"/>
<path d="M191.14 17.1284H194.67V10.9508H197.619C199.64 10.9508 200.499 11.6475 200.754 13.5287L201.242 17.1284H205.004L204.331 13.2268C203.913 10.8115 202.589 9.88251 200.592 9.69672C202.589 9.34836 204.726 8.07104 204.726 5.16803C204.726 2.59016 202.659 0.871584 199.175 0.871584H191.14V17.1284ZM194.67 8.09426V3.79781H198.502C199.965 3.79781 201.056 4.47131 201.056 5.93443C201.056 7.42076 199.965 8.09426 198.502 8.09426H194.67Z" fill="black"/>
<path d="M207.991 17.1284H220.276V14.2022H211.521V10.2077H218.14V7.32787H211.521V3.79781H220.276V0.871584H207.991V17.1284Z" fill="black"/>
  </symbol>
      <symbol id="logo-arch-sunflower"
              viewBox="0 0 250 273">
       
            <path d="M0 125C0 55.9644 55.9644 0 125 0C194.036 0 250 55.9644 250 125V272.5H0V125Z"
                  fill="#FFC700"></path>
            <path fill-rule="evenodd"
                  clip-rule="evenodd"
                  d="M103.811 67.7499H99.5614V48.4966H91.6182V44.8682H111.885V48.4966H103.811V67.7499ZM119.424 67.7499H115.175V44.8682H119.424V54.1189H130.146V44.8682H134.395V67.7499H130.146V57.78H119.424V67.7499ZM140.329 67.7499H157.131V64.1215H144.579V57.7473H153.993V54.1516H144.579V48.4966H157.131V44.8682H140.329V67.7499ZM62.1259 124.596V119.889L39.2442 128.421L39.2442 134.076L62.1259 142.738V138.162L56.4709 136.168V126.525L62.1259 124.596ZM52.8425 134.893L47.3182 132.932C46.5604 132.67 45.921 132.448 45.3734 132.258L45.3519 132.25L45.3511 132.25L45.3495 132.249L45.3435 132.247C44.0664 131.804 43.292 131.535 42.6765 131.33L47.2855 129.696L52.8425 127.8L52.8425 134.893ZM62.1259 167.635V171.884H39.2442L39.2442 164.922L51.2081 160.541C54.2481 159.463 55.2614 159.07 55.8498 158.809C55.1961 158.547 54.2481 158.188 51.2081 157.076L39.2442 152.696L39.2442 145.962H62.1259V150.212H51.6657H43.1014L62.1259 157.174V160.705L43.1014 167.635H51.6657H62.1259ZM62.6163 188.328C62.6163 183.654 60.132 181.627 58.5629 180.745H62.1259V176.822H50.5543V188.688H54.2154V181.072C56.4709 181.3 58.9879 183.36 58.9879 187.478C58.9879 191.532 56.0133 194.703 50.7178 194.703C45.3896 194.703 42.415 191.368 42.415 187.348C42.415 183.654 44.5397 181.791 47.2528 180.843L45.6838 176.724C42.0554 177.934 38.7539 181.268 38.7539 187.315C38.7539 193.951 43.8533 199.148 50.7505 199.148C58.2361 199.148 62.6163 194.408 62.6163 188.328ZM62.1259 203.579L62.1259 207.828H39.2442L39.2442 203.579H62.1259ZM62.1259 224.488V228.737H39.2442L39.2442 211.576H42.8726L42.8726 224.488H49.3776L49.3776 214.224H53.0386L53.0386 224.488H62.1259ZM184.261 130.361C184.261 136.572 187.399 139.481 191.321 139.481C195.277 139.481 197.467 136.441 198.186 132.094L198.709 129.119C199.101 126.995 199.984 125.883 201.553 125.883C203.187 125.883 204.593 127.125 204.593 130.002C204.593 133.205 202.664 134.644 200.801 135.265L202.337 139.22C205.116 138.337 208.123 135.624 208.123 130.133C208.123 124.641 205.05 121.536 201.357 121.536C197.271 121.536 195.375 124.183 194.688 128.237L194.198 131.146C193.708 133.925 192.662 135.069 191.027 135.069C189.164 135.069 187.791 133.63 187.791 130.427C187.791 126.831 190.112 125.033 192.531 124.412L190.994 120.392C187.333 121.34 184.261 124.51 184.261 130.361ZM184.751 148.717V152.966H204.004V161.04H207.633V140.774H204.004V148.717H184.751ZM196.159 185.794C189.197 185.794 184.261 181.12 184.261 173.896C184.261 166.672 189.197 161.998 196.159 161.998C203.089 161.998 208.123 166.705 208.123 173.896C208.123 181.055 203.089 185.794 196.159 185.794ZM196.159 166.443C191.419 166.443 187.889 169.222 187.889 173.896C187.889 178.57 191.419 181.316 196.159 181.316C200.964 181.316 204.495 178.57 204.495 173.896C204.495 169.222 200.964 166.443 196.159 166.443ZM184.751 190.251V194.501H193.773V198.881C193.773 201.823 192.76 203.163 189.981 203.588L184.751 204.372V208.949L190.341 207.903C193.479 207.347 194.884 205.778 195.244 202.869C195.767 205.745 197.663 208.556 201.52 208.556C205.083 208.556 207.633 205.745 207.633 200.907V190.251H184.751ZM197.336 194.501H204.004V200.156C204.004 202.411 202.958 204.111 200.67 204.111C198.382 204.111 197.336 202.411 197.336 200.156V194.501ZM184.751 230.292V213.49H207.633V230.292H204.004V217.74H198.349V227.154H194.754V217.74H188.379V230.292H184.751Z"
                  fill="black"></path>
      </symbol>

      <symbol id="logo-tetris-sunflower"
              viewBox="0 0 250 275">

            <path fill-rule="evenodd"
                  clip-rule="evenodd"
                  d="M200.625 0H0V152.5H49.375V275H250V122.5H200.625V0Z"
                  fill="#FFC700"></path>
            <path fill-rule="evenodd"
                  clip-rule="evenodd"
                  d="M41.3099 55.2499H37.0604V35.9966H29.1172V32.3682H49.3839V35.9966H41.3099V55.2499ZM56.9233 55.2499H52.6739V32.3682H56.9233V41.6189H67.645V32.3682H71.8945V55.2499H67.645V45.28H56.9233V55.2499ZM77.8284 55.2499H94.6301V51.6215H82.0779V45.2473H91.4921V41.6516H82.0779V35.9966H94.6301V32.3682H77.8284V55.2499ZM135.731 237.43C135.731 241.352 132.822 244.49 126.611 244.49C120.76 244.49 117.59 241.418 116.642 237.757L120.662 236.22C121.283 238.639 123.081 240.96 126.677 240.96C129.88 240.96 131.319 239.587 131.319 237.724C131.319 236.089 130.175 235.043 127.396 234.553L124.487 234.063C120.433 233.376 117.786 231.48 117.786 227.394C117.786 223.701 120.891 220.628 126.383 220.628C131.874 220.628 134.587 223.635 135.47 226.414L131.515 227.95C130.894 226.087 129.455 224.158 126.252 224.158C123.375 224.158 122.133 225.564 122.133 227.198C122.133 228.767 123.245 229.65 125.369 230.042L128.344 230.565C132.691 231.284 135.731 233.474 135.731 237.43ZM149.216 244H144.967V224.747H137.024V221.118H157.29V224.747H149.216V244ZM170.146 244.49C177.37 244.49 182.044 239.554 182.044 232.592C182.044 225.662 177.305 220.628 170.146 220.628C162.955 220.628 158.248 225.662 158.248 232.592C158.248 239.554 162.922 244.49 170.146 244.49ZM170.146 240.862C165.472 240.862 162.693 237.332 162.693 232.592C162.693 227.787 165.472 224.256 170.146 224.256C174.82 224.256 177.566 227.787 177.566 232.592C177.566 237.332 174.82 240.862 170.146 240.862ZM190.751 244H186.501V221.118H197.157C201.995 221.118 204.806 223.668 204.806 227.231C204.806 231.088 201.995 232.984 199.119 233.507C202.028 233.867 203.597 235.272 204.153 238.41L205.199 244H200.622L199.838 238.77C199.413 235.991 198.073 234.978 195.131 234.978H190.751V244ZM190.751 224.747V231.415H196.406C198.661 231.415 200.361 230.369 200.361 228.081C200.361 225.793 198.661 224.747 196.406 224.747H190.751ZM209.74 244H226.542V240.372H213.99V233.997H223.404V230.402H213.99V224.747H226.542V221.118H209.74V244ZM80.7284 107.909L83.7332 110.914L90.1589 104.488L97.4167 111.746L100.005 109.157L92.7476 101.899L97.3473 97.2995L106.477 106.43L109.043 103.864L96.9082 91.729L80.7284 107.909ZM95.5132 122.694L98.518 125.699L114.698 109.519L111.693 106.514L95.5132 122.694ZM117.184 139.325C115.45 139.811 112.26 140.134 108.955 136.829C104.656 132.53 104.402 126.081 109.695 120.788C114.572 115.911 121.853 115.98 126.545 120.672C130.821 124.948 130.844 129.641 129.134 133.061L125.112 131.259C126.36 128.67 126.545 125.85 123.933 123.238C121.09 120.395 116.629 120.141 112.861 123.908C109.117 127.653 109.256 131.998 112.122 134.864C115.034 137.777 118.27 137.453 120.027 136.02L114.641 130.634L117.23 128.046L125.62 136.436L117.438 144.618L114.664 141.845L117.184 139.325ZM120.93 148.11L123.934 151.115L131.331 143.718L137.387 137.663L128.835 156.015L131.331 158.511L149.707 149.982L143.651 156.038L136.254 163.435L139.259 166.44L155.439 150.26L150.677 145.498L139.12 150.861C136.185 152.224 135.26 152.64 134.613 152.918C134.844 152.317 135.283 151.323 136.67 148.411L142.033 136.854L137.109 131.93L120.93 148.11ZM157.696 184.876L154.367 181.548L157.002 176.185L150.183 169.367L144.775 171.955L141.539 168.719L163.844 158.665L167.843 162.663L157.696 184.876ZM158.944 165.183L153.651 167.702L158.666 172.718L161.255 167.448L163.358 163.033C162.777 163.324 162.038 163.682 160.818 164.274C160.291 164.529 159.675 164.828 158.944 165.183Z"
                  fill="black"></path>
      </symbol>

      <symbol id="logo-tower-bio"
              viewBox="0 0 250 273">

            <path fill-rule="evenodd"
                  clip-rule="evenodd"
                  d="M193.125 0H56.875V86.25H8.14125e-06L0 272.5L56.875 272.5H193.125L250 272.5L250 86.25H193.125V0Z"
                  fill="#0FA958"></path>
            <path fill-rule="evenodd"
                  clip-rule="evenodd"
                  d="M103.809 63.3749H99.5594V44.1216H91.6162V40.4932H111.883V44.1216H103.809V63.3749ZM119.422 63.3749H115.173V40.4932H119.422V49.7439H130.144V40.4932H134.394V63.3749H130.144V53.405H119.422V63.3749ZM140.327 63.3749H157.129V59.7465H144.577V53.3723H153.991V49.7766H144.577V44.1216H157.129V40.4932H140.327V63.3749ZM112.296 143.865C116.97 143.865 118.997 141.381 119.879 139.812V143.375H123.802V131.803H111.936V135.464H119.552C119.324 137.72 117.264 140.237 113.146 140.237C109.092 140.237 105.921 137.262 105.921 131.967C105.921 126.639 109.256 123.664 113.276 123.664C116.97 123.664 118.833 125.789 119.781 128.502L123.9 126.933C122.691 123.304 119.356 120.003 113.309 120.003C106.673 120.003 101.476 125.102 101.476 131.999C101.476 139.485 106.216 143.865 112.296 143.865ZM76.1362 143.375H71.8867V120.493H89.048V124.122H76.1362V130.627H86.4003V134.288H76.1362V143.375ZM97.0451 143.375H92.7957V120.493H97.0451V143.375ZM132.989 143.375H128.74V120.493H135.702L140.083 132.457C141.161 135.497 141.554 136.51 141.815 137.099C142.077 136.445 142.436 135.497 143.548 132.457L147.928 120.493H154.662V143.375H150.412V132.915V124.35L143.45 143.375H139.919L132.989 124.35V132.915V143.375ZM176.028 143.375H180.735L172.203 120.493H166.548L157.886 143.375H162.462L164.456 137.72H174.099L176.028 143.375ZM165.731 134.092L167.692 128.567C167.958 127.8 168.182 127.154 168.374 126.601C168.819 125.319 169.088 124.542 169.294 123.926L170.928 128.535L172.824 134.092H165.731ZM79.7355 238.24C85.9463 238.24 88.8555 235.102 88.8555 231.18C88.8555 227.224 85.8155 225.034 81.468 224.315L78.4934 223.792C76.3686 223.4 75.2572 222.517 75.2572 220.948C75.2572 219.314 76.4994 217.908 79.3759 217.908C82.5794 217.908 84.0177 219.837 84.6387 221.7L88.594 220.164C87.7114 217.385 84.9983 214.378 79.5067 214.378C74.0151 214.378 70.9097 217.451 70.9097 221.144C70.9097 225.23 73.5575 227.126 77.6108 227.813L80.52 228.303C83.2985 228.793 84.4426 229.839 84.4426 231.474C84.4426 233.337 83.0043 234.71 79.8009 234.71C76.2052 234.71 74.4073 232.389 73.7863 229.97L69.7656 231.507C70.7136 235.168 73.8843 238.24 79.7355 238.24ZM98.0909 237.75H102.34V218.497H110.414V214.868H90.1477V218.497H98.0909V237.75ZM135.169 226.342C135.169 233.304 130.494 238.24 123.27 238.24C116.046 238.24 111.372 233.304 111.372 226.342C111.372 219.412 116.079 214.378 123.27 214.378C130.429 214.378 135.169 219.412 135.169 226.342ZM115.817 226.342C115.817 231.082 118.596 234.612 123.27 234.612C127.944 234.612 130.69 231.082 130.69 226.342C130.69 221.537 127.944 218.006 123.27 218.006C118.596 218.006 115.817 221.537 115.817 226.342ZM139.625 237.75H143.875V228.728H148.255C151.197 228.728 152.537 229.741 152.962 232.52L153.746 237.75H158.323L157.277 232.16C156.721 229.022 155.152 227.617 152.243 227.257C155.119 226.734 157.93 224.838 157.93 220.981C157.93 217.418 155.119 214.868 150.281 214.868H139.625V237.75ZM143.875 225.165V218.497H149.53C151.785 218.497 153.485 219.543 153.485 221.831C153.485 224.119 151.785 225.165 149.53 225.165H143.875ZM179.666 237.75H162.864V214.868H179.666V218.497H167.114V224.152H176.528V227.747H167.114V234.122H179.666V237.75Z"
                  fill="black"></path>
      </symbol>

      <symbol id="logo-figure-bio"
              viewBox="0 0 250 274">
  
            <path fill-rule="evenodd"
                  clip-rule="evenodd"
                  d="M50 0C22.3858 0 0 22.3858 0 50V87C0 114.614 22.3858 137 50 137C22.3858 137 0 159.386 0 187V224C0 251.614 22.3858 274 50 274H200C227.614 274 250 251.614 250 224V187C250 159.386 227.614 137 200 137C227.614 137 250 114.614 250 87V50C250 22.3858 227.614 0 200 0H50Z"
                  fill="#0FA958"></path>
            <path fill-rule="evenodd"
                  clip-rule="evenodd"
                  d="M103.559 53.9999H99.3094V34.7466H91.3662V31.1182H111.633V34.7466H103.559V53.9999ZM119.172 53.9999H114.923V31.1182H119.172V40.3689H129.894V31.1182H134.144V53.9999H129.894V44.03H119.172V53.9999ZM140.077 53.9999H156.879V50.3715H144.327V43.9973H153.741V40.4016H144.327V34.7466H156.879V31.1182H140.077V53.9999ZM89.1055 236.43C89.1055 240.352 86.1963 243.49 79.9855 243.49C74.1343 243.49 70.9636 240.418 70.0156 236.757L74.0363 235.22C74.6573 237.639 76.4552 239.96 80.0509 239.96C83.2543 239.96 84.6926 238.587 84.6926 236.724C84.6926 235.089 83.5485 234.043 80.77 233.553L77.8608 233.063C73.8075 232.376 71.1597 230.48 71.1597 226.394C71.1597 222.701 74.2651 219.628 79.7567 219.628C85.2483 219.628 87.9614 222.635 88.844 225.414L84.8887 226.95C84.2677 225.087 82.8294 223.158 79.6259 223.158C76.7494 223.158 75.5072 224.564 75.5072 226.198C75.5072 227.767 76.6186 228.65 78.7434 229.042L81.718 229.565C86.0655 230.284 89.1055 232.474 89.1055 236.43ZM102.59 243H98.3409V223.747H90.3977V220.118H110.664V223.747H102.59V243ZM123.52 243.49C130.744 243.49 135.419 238.554 135.419 231.592C135.419 224.662 130.679 219.628 123.52 219.628C116.329 219.628 111.622 224.662 111.622 231.592C111.622 238.554 116.296 243.49 123.52 243.49ZM123.52 239.862C118.846 239.862 116.067 236.332 116.067 231.592C116.067 226.787 118.846 223.256 123.52 223.256C128.194 223.256 130.94 226.787 130.94 231.592C130.94 236.332 128.194 239.862 123.52 239.862ZM144.125 243H139.875V220.118H150.531C155.369 220.118 158.18 222.668 158.18 226.231C158.18 230.088 155.369 231.984 152.493 232.507C155.402 232.867 156.971 234.272 157.527 237.41L158.573 243H153.996L153.212 237.77C152.787 234.991 151.447 233.978 148.505 233.978H144.125V243ZM144.125 223.747V230.415H149.78C152.035 230.415 153.735 229.369 153.735 227.081C153.735 224.793 152.035 223.747 149.78 223.747H144.125ZM163.114 243H179.916V239.372H167.364V232.997H176.778V229.402H167.364V223.747H179.916V220.118H163.114V243ZM115.124 86.1377L115.124 90.3872H124.211V100.651H127.872V90.3872H134.377V103.299H138.006L138.006 86.1377H115.124ZM115.124 107.047V111.296H138.006V107.047H115.124ZM118.687 134.13C117.118 133.248 114.634 131.221 114.634 126.547C114.634 120.467 119.014 115.727 126.5 115.727C133.397 115.727 138.496 120.924 138.496 127.56C138.496 133.607 135.195 136.941 131.566 138.151L129.997 134.032C132.71 133.084 134.835 131.221 134.835 127.527C134.835 123.507 131.86 120.172 126.532 120.172C121.237 120.172 118.262 123.343 118.262 127.397C118.262 131.515 120.779 133.575 123.035 133.803V126.187H126.696V138.053H115.124V134.13H118.687ZM115.124 142.991V147.24H125.584H134.149L115.124 154.17V157.701L134.149 164.663H125.584H115.124V168.913H138.006V162.179L126.042 157.799C123.002 156.687 122.054 156.328 121.4 156.066C121.989 155.805 123.002 155.412 126.042 154.334L138.006 149.953V142.991H115.124ZM115.124 194.986V190.279L120.779 188.35V178.707L115.124 176.713L115.124 172.137L138.006 180.799V186.454L115.124 194.986ZM129.932 181.943L124.407 179.982V187.075L129.964 185.179L134.574 183.545C133.957 183.339 133.18 183.07 131.899 182.625C131.346 182.433 130.7 182.209 129.932 181.943Z"
                  fill="black"></path>
      </symbol>

      <symbol id="logo-rect-glow"
              viewBox="0 0 252 279">

            <path fill-rule="evenodd"
                  clip-rule="evenodd"
                  d="M126.001 9.85658L1 98.1431L66.1043 144.124L1 190.106L126.001 278.39L251.002 190.106L185.898 144.124L251.002 98.1431L126.001 9.85658Z"
                  fill="#F24E1E"></path>
            <path fill-rule="evenodd"
                  clip-rule="evenodd"
                  d="M109.798 74.4824L123.51 64.7733L121.414 61.8121L111.169 69.0655L107.486 63.8633L115.169 58.4232L113.091 55.4886L105.408 60.9287L102.14 56.3134L112.384 49.06L110.288 46.0987L96.5753 55.8078L109.798 74.4824ZM92.7363 86.5626L89.2682 89.0182L76.0458 70.3436L79.5139 67.888L84.8595 75.4379L93.6099 69.2422L88.2643 61.6923L91.7324 59.2368L104.955 77.9113L101.487 80.3669L95.7255 72.2302L86.9751 78.4258L92.7363 86.5626ZM79.9936 95.585L76.5255 98.0406L65.3998 82.3272L58.917 86.9173L56.8203 83.9561L73.3607 72.2448L75.4574 75.206L68.8679 79.8716L79.9936 95.585ZM200.191 204.459L213.904 194.75L211.807 191.789L201.563 199.042L197.879 193.84L205.562 188.4L203.485 185.465L195.801 190.905L192.533 186.29L202.778 179.037L200.681 176.075L186.969 185.785L200.191 204.459ZM184.693 215.433L181.225 217.888L168.002 199.214L176.699 193.056C180.648 190.26 184.415 190.716 186.474 193.624C188.703 196.772 187.504 199.944 185.459 202.033C188.041 200.646 190.134 200.886 192.401 203.126L196.484 207.084L192.75 209.728L189.087 205.913C187.135 203.891 185.455 203.838 183.054 205.538L179.479 208.069L184.693 215.433ZM173.567 199.719L177.42 205.162L182.036 201.894C183.877 200.59 184.659 198.754 183.337 196.887C182.015 195.019 180.023 195.148 178.182 196.451L173.567 199.719ZM168.16 227.739C174.056 223.565 175.019 216.835 170.995 211.153C166.991 205.497 160.213 204.128 154.371 208.264C148.502 212.42 147.569 219.248 151.574 224.904C155.597 230.587 162.264 231.914 168.16 227.739ZM166.063 224.778C162.248 227.479 157.941 226.204 155.202 222.335C152.425 218.414 152.653 213.927 156.468 211.226C160.283 208.524 164.564 209.819 167.34 213.741C170.079 217.609 169.878 222.077 166.063 224.778ZM150.795 239.433L147.327 241.889L136.201 226.176L129.719 230.766L127.622 227.805L144.162 216.093L146.259 219.055L139.67 223.72L150.795 239.433ZM135.993 241.864C138.26 245.065 137.699 249.307 132.63 252.896C127.855 256.277 123.491 255.602 120.602 253.162L122.996 249.584C124.9 251.2 127.709 252.055 130.643 249.977C133.258 248.126 133.638 246.174 132.562 244.654C131.617 243.32 130.079 243.127 127.528 244.333L124.87 245.614C121.166 247.396 117.909 247.378 115.548 244.044C113.413 241.029 114.172 236.727 118.654 233.553C123.136 230.38 127.088 231.267 129.414 233.024L127.074 236.564C125.49 235.402 123.202 234.659 120.587 236.51C118.24 238.172 118.038 240.037 118.983 241.371C119.889 242.652 121.306 242.73 123.267 241.822L125.997 240.53C129.961 238.605 133.707 238.636 135.993 241.864ZM176.275 116.895L172.433 119.615L167.591 116.114L159.721 121.686L161.362 127.454L157.627 130.098L151.474 106.418L156.089 103.15L176.275 116.895ZM157.073 112.346L158.665 117.988L164.454 113.889L159.696 110.45L155.698 107.632C155.887 108.255 156.116 109.044 156.494 110.348L156.495 110.352C156.657 110.913 156.847 111.568 157.073 112.346ZM133.84 146.94L137.308 144.485L131.263 135.948L126.314 128.958L142.964 140.48L145.845 138.44L140.534 118.89L145.483 125.88L151.527 134.417L154.995 131.961L141.773 113.287L136.277 117.178L139.616 129.473C140.466 132.596 140.72 133.578 140.884 134.263C140.331 133.933 139.425 133.333 136.788 131.475L126.3 124.242L120.617 128.266L133.84 146.94ZM124.549 149.153C124.736 150.943 124.517 154.142 120.702 156.843C115.74 160.356 109.341 159.52 105.015 153.411C101.03 147.782 102.325 140.617 107.74 136.782C112.676 133.288 117.305 134.056 120.388 136.318L117.934 139.979C115.592 138.312 112.844 137.655 109.829 139.789C106.548 142.113 105.546 146.467 108.625 150.816C111.685 155.137 115.991 155.733 119.299 153.391C122.661 151.011 122.887 147.766 121.77 145.793L115.554 150.194L113.439 147.207L123.123 140.35L129.81 149.794L126.608 152.061L124.549 149.153ZM104.504 167.711L107.973 165.255L94.7501 146.581L91.282 149.036L104.504 167.711ZM87.4398 179.794L90.908 177.338L85.6568 169.921L94.0337 163.99L91.9181 161.002L83.5412 166.934L79.7823 161.625L90.3201 154.163L88.2234 151.202L74.2174 161.119L87.4398 179.794Z"
                  fill="black"></path>
      </symbol>

      <symbol id="logo-layer-glow"
              viewBox="0 0 252 279">

            <path fill-rule="evenodd"
                  clip-rule="evenodd"
                  d="M126.001 9.85658L1 98.1431L66.1043 144.124L1 190.106L126.001 278.39L251.002 190.106L185.898 144.124L251.002 98.1431L126.001 9.85658Z"
                  fill="#F24E1E"></path>
            <path fill-rule="evenodd"
                  clip-rule="evenodd"
                  d="M109.798 74.4824L123.51 64.7733L121.414 61.8121L111.169 69.0655L107.486 63.8633L115.169 58.4232L113.091 55.4886L105.408 60.9287L102.14 56.3134L112.384 49.06L110.288 46.0987L96.5753 55.8078L109.798 74.4824ZM92.7363 86.5626L89.2682 89.0182L76.0458 70.3436L79.5139 67.888L84.8595 75.4379L93.6099 69.2422L88.2643 61.6923L91.7324 59.2368L104.955 77.9113L101.487 80.3669L95.7255 72.2302L86.9751 78.4258L92.7363 86.5626ZM79.9936 95.585L76.5255 98.0406L65.3998 82.3272L58.917 86.9173L56.8203 83.9561L73.3607 72.2448L75.4574 75.206L68.8679 79.8716L79.9936 95.585ZM200.191 204.459L213.904 194.75L211.807 191.789L201.563 199.042L197.879 193.84L205.562 188.4L203.485 185.465L195.801 190.905L192.533 186.29L202.778 179.037L200.681 176.075L186.969 185.785L200.191 204.459ZM184.693 215.433L181.225 217.888L168.002 199.214L176.699 193.056C180.648 190.26 184.415 190.716 186.474 193.624C188.703 196.772 187.504 199.944 185.459 202.033C188.041 200.646 190.134 200.886 192.401 203.126L196.484 207.084L192.75 209.728L189.087 205.913C187.135 203.891 185.455 203.838 183.054 205.538L179.479 208.069L184.693 215.433ZM173.567 199.719L177.42 205.162L182.036 201.894C183.877 200.59 184.659 198.754 183.337 196.887C182.015 195.019 180.023 195.148 178.182 196.451L173.567 199.719ZM168.16 227.739C174.056 223.565 175.019 216.835 170.995 211.153C166.991 205.497 160.213 204.128 154.371 208.264C148.502 212.42 147.569 219.248 151.574 224.904C155.597 230.587 162.264 231.914 168.16 227.739ZM166.063 224.778C162.248 227.479 157.941 226.204 155.202 222.335C152.425 218.414 152.653 213.927 156.468 211.226C160.283 208.524 164.564 209.819 167.34 213.741C170.079 217.609 169.878 222.077 166.063 224.778ZM150.795 239.433L147.327 241.889L136.201 226.176L129.719 230.766L127.622 227.805L144.162 216.093L146.259 219.055L139.67 223.72L150.795 239.433ZM135.993 241.864C138.26 245.065 137.699 249.307 132.63 252.896C127.855 256.277 123.491 255.602 120.602 253.162L122.996 249.584C124.9 251.2 127.709 252.055 130.643 249.977C133.258 248.126 133.638 246.174 132.562 244.654C131.617 243.32 130.079 243.127 127.528 244.333L124.87 245.614C121.166 247.396 117.909 247.378 115.548 244.044C113.413 241.029 114.172 236.727 118.654 233.553C123.136 230.38 127.088 231.267 129.414 233.024L127.074 236.564C125.49 235.402 123.202 234.659 120.587 236.51C118.24 238.172 118.038 240.037 118.983 241.371C119.889 242.652 121.306 242.73 123.267 241.822L125.997 240.53C129.961 238.605 133.707 238.636 135.993 241.864ZM176.275 116.895L172.433 119.615L167.591 116.114L159.721 121.686L161.362 127.454L157.627 130.098L151.474 106.418L156.089 103.15L176.275 116.895ZM157.073 112.346L158.665 117.988L164.454 113.889L159.696 110.45L155.698 107.632C155.887 108.255 156.116 109.044 156.494 110.348L156.495 110.352C156.657 110.913 156.847 111.568 157.073 112.346ZM133.84 146.94L137.308 144.485L131.263 135.948L126.314 128.958L142.964 140.48L145.845 138.44L140.534 118.89L145.483 125.88L151.527 134.417L154.995 131.961L141.773 113.287L136.277 117.178L139.616 129.473C140.466 132.596 140.72 133.578 140.884 134.263C140.331 133.933 139.425 133.333 136.788 131.475L126.3 124.242L120.617 128.266L133.84 146.94ZM124.549 149.153C124.736 150.943 124.517 154.142 120.702 156.843C115.74 160.356 109.341 159.52 105.015 153.411C101.03 147.782 102.325 140.617 107.74 136.782C112.676 133.288 117.305 134.056 120.388 136.318L117.934 139.979C115.592 138.312 112.844 137.655 109.829 139.789C106.548 142.113 105.546 146.467 108.625 150.816C111.685 155.137 115.991 155.733 119.299 153.391C122.661 151.011 122.887 147.766 121.77 145.793L115.554 150.194L113.439 147.207L123.123 140.35L129.81 149.794L126.608 152.061L124.549 149.153ZM104.504 167.711L107.973 165.255L94.7501 146.581L91.282 149.036L104.504 167.711ZM87.4398 179.794L90.908 177.338L85.6568 169.921L94.0337 163.99L91.9181 161.002L83.5412 166.934L79.7823 161.625L90.3201 154.163L88.2234 151.202L74.2174 161.119L87.4398 179.794Z"
                  fill="black"></path>
      </symbol>

     <symbol id="logo-circle-glow"
              viewBox="0 0 251 273">
  
            <path d="M250.5 136.75C250.5 211.999 194.536 273 125.5 273C56.4644 273 0.5 211.999 0.5 136.75C0.5 61.5012 56.4644 0.5 125.5 0.5C194.536 0.5 250.5 61.5012 250.5 136.75Z"
                  fill="#F24E1E"></path>
            <path fill-rule="evenodd"
                  clip-rule="evenodd"
                  d="M115.562 45.8724V41.6229L134.815 41.6229V33.6797H138.443V53.9464H134.815V45.8724L115.562 45.8724ZM115.562 61.4858V57.2364L138.443 57.2364V61.4858H129.193V72.2075H138.443V76.457H115.562V72.2075H125.532V61.4858L115.562 61.4858ZM115.562 82.3909V99.1926H119.19V86.6404H125.564V96.0546H129.16V86.6404H134.815V99.1926H138.443V82.3909H115.562ZM89.668 219.18C89.668 223.102 86.7588 226.24 80.548 226.24C74.6968 226.24 71.5261 223.168 70.5781 219.507L74.5988 217.97C75.2198 220.389 77.0177 222.71 80.6134 222.71C83.8168 222.71 85.2551 221.337 85.2551 219.474C85.2551 217.839 84.111 216.793 81.3325 216.303L78.4233 215.813C74.37 215.126 71.7222 213.23 71.7222 209.144C71.7222 205.451 74.8276 202.378 80.3192 202.378C85.8108 202.378 88.5239 205.385 89.4065 208.164L85.4512 209.7C84.8302 207.837 83.3919 205.908 80.1884 205.908C77.3119 205.908 76.0697 207.314 76.0697 208.948C76.0697 210.517 77.1811 211.4 79.3059 211.792L82.2805 212.315C86.628 213.034 89.668 215.224 89.668 219.18ZM103.153 225.75H98.9034V206.497H90.9602V202.868H111.227V206.497H103.153V225.75ZM124.083 226.24C131.307 226.24 135.981 221.304 135.981 214.342C135.981 207.412 131.241 202.378 124.083 202.378C116.891 202.378 112.184 207.412 112.184 214.342C112.184 221.304 116.858 226.24 124.083 226.24ZM124.083 222.612C119.408 222.612 116.63 219.082 116.63 214.342C116.63 209.537 119.408 206.006 124.083 206.006C128.757 206.006 131.503 209.537 131.503 214.342C131.503 219.082 128.757 222.612 124.083 222.612ZM144.687 225.75H140.438V202.868H151.094C155.932 202.868 158.743 205.418 158.743 208.981C158.743 212.838 155.932 214.734 153.055 215.257C155.964 215.617 157.534 217.022 158.089 220.16L159.135 225.75H154.559L153.774 220.52C153.349 217.741 152.009 216.728 149.067 216.728H144.687V225.75ZM144.687 206.497V213.165H150.342C152.598 213.165 154.297 212.119 154.297 209.831C154.297 207.543 152.598 206.497 150.342 206.497H144.687ZM163.677 225.75H180.479V222.122H167.926V215.747H177.34V212.152H167.926V206.497H180.479V202.868H163.677V225.75ZM120.379 151.562C119.497 153.131 117.47 155.615 112.796 155.615C106.716 155.615 101.976 151.235 101.976 143.749C101.976 136.852 107.173 131.753 113.809 131.753C119.856 131.753 123.191 135.054 124.4 138.683L120.281 140.252C119.333 137.539 117.47 135.414 113.776 135.414C109.756 135.414 106.421 138.389 106.421 143.717C106.421 149.012 109.592 151.987 113.646 151.987C117.764 151.987 119.824 149.47 120.052 147.214H112.436V143.553H124.302V155.125H120.379V151.562ZM72.3867 155.125H76.6362V146.038H86.9003V142.377H76.6362V135.872H89.548V132.243H72.3867V155.125ZM93.2957 155.125H97.5451V132.243H93.2957V155.125ZM129.24 155.125H133.489V144.665V136.1L140.419 155.125H143.95L150.912 136.1V144.665V155.125H155.162V132.243H148.428L144.048 144.207C142.936 147.247 142.577 148.195 142.315 148.849C142.054 148.26 141.661 147.247 140.583 144.207L136.202 132.243H129.24V155.125ZM181.235 155.125H176.528L174.599 149.47H164.956L162.962 155.125H158.386L167.048 132.243H172.703L181.235 155.125ZM168.192 140.317L166.231 145.842H173.324L171.428 140.285L169.794 135.676C169.588 136.292 169.319 137.069 168.874 138.351C168.682 138.904 168.458 139.55 168.192 140.317Z"
                  fill="black"></path>

      </symbol>
      
      <symbol id="logo-rect-lilac"
              viewBox="0 0 250 273">
  
            <path fill-rule="evenodd"
                  clip-rule="evenodd"
                  d="M125 0H0V273H125H250L250 86L125 86V0Z"
                  fill="#C7B9FF"></path>
            <path fill-rule="evenodd"
                  clip-rule="evenodd"
                  d="M41.5599 63.9999H37.3104V44.7466H29.3672V41.1182H49.6339V44.7466H41.5599V63.9999ZM57.1733 63.9999H52.9239V41.1182H57.1733V50.3689H67.895V41.1182H72.1445V63.9999H67.895V54.03H57.1733V63.9999ZM78.0784 63.9999H94.8801V60.3715H82.3279V53.9973H91.7421V50.4016H82.3279V44.7466H94.8801V41.1182H78.0784V63.9999ZM129.103 231.43C129.103 235.352 126.194 238.49 119.983 238.49C114.132 238.49 110.961 235.418 110.013 231.757L114.034 230.22C114.655 232.639 116.453 234.96 120.048 234.96C123.252 234.96 124.69 233.587 124.69 231.724C124.69 230.089 123.546 229.043 120.768 228.553L117.858 228.063C113.805 227.376 111.157 225.48 111.157 221.394C111.157 217.701 114.263 214.628 119.754 214.628C125.246 214.628 127.959 217.635 128.842 220.414L124.886 221.95C124.265 220.087 122.827 218.158 119.624 218.158C116.747 218.158 115.505 219.564 115.505 221.198C115.505 222.767 116.616 223.65 118.741 224.042L121.716 224.565C126.063 225.284 129.103 227.474 129.103 231.43ZM142.588 238H138.339V218.747H130.395V215.118H150.662V218.747H142.588V238ZM163.518 238.49C170.742 238.49 175.416 233.554 175.416 226.592C175.416 219.662 170.676 214.628 163.518 214.628C156.326 214.628 151.619 219.662 151.619 226.592C151.619 233.554 156.294 238.49 163.518 238.49ZM163.518 234.862C158.843 234.862 156.065 231.332 156.065 226.592C156.065 221.787 158.843 218.256 163.518 218.256C168.192 218.256 170.938 221.787 170.938 226.592C170.938 231.332 168.192 234.862 163.518 234.862ZM184.122 238H179.873V215.118H190.529C195.367 215.118 198.178 217.668 198.178 221.231C198.178 225.088 195.367 226.984 192.49 227.507C195.4 227.867 196.969 229.272 197.524 232.41L198.57 238H193.994L193.209 232.77C192.784 229.991 191.444 228.978 188.502 228.978H184.122V238ZM184.122 218.747V225.415H189.777C192.033 225.415 193.732 224.369 193.732 222.081C193.732 219.793 192.033 218.747 189.777 218.747H184.122ZM203.112 238H219.914V234.372H207.361V227.997H216.776V224.402H207.361V218.747H219.914V215.118H203.112V238ZM69 126.514V131.221L63.3449 133.15V142.793L69 144.787L69 149.363L46.1182 140.701V135.046L69 126.514ZM54.1922 139.557L59.7165 141.518V134.425L54.1595 136.321L49.5505 137.955C50.1664 138.16 50.9416 138.429 52.2203 138.873L52.2249 138.875L52.226 138.875C52.7783 139.067 53.4245 139.291 54.1922 139.557ZM69 178.509V174.26H58.5398H49.9755L69 167.33V163.799L49.9755 156.837H58.5398H69V152.587H46.1182V159.321L58.0821 163.701C61.1221 164.813 62.0701 165.172 62.7238 165.434C62.1355 165.695 61.1221 166.088 58.0821 167.166L46.1182 171.547V178.509H69ZM65.437 187.37C67.006 188.252 69.4903 190.279 69.4903 194.953C69.4903 201.033 65.1101 205.773 57.6245 205.773C50.7273 205.773 45.6279 200.576 45.6279 193.94C45.6279 187.893 48.9294 184.559 52.5578 183.349L54.1269 187.468C51.4137 188.416 49.289 190.279 49.289 193.973C49.289 197.993 52.2636 201.328 57.5918 201.328C62.8873 201.328 65.8619 198.157 65.8619 194.103C65.8619 189.985 63.3449 187.925 61.0894 187.697L61.0894 195.313H57.4284L57.4284 183.447H69V187.37H65.437ZM69 214.453V210.204H46.1182V214.453H69ZM69 235.362V231.113H59.9127V220.849H56.2516V231.113H49.7466V218.201H46.1183V235.362H69Z"
                  fill="black"></path>
      </symbol>
      
      <symbol id="logo-l-lilac"
              viewBox="0 0 250 273">
 
            <path fill-rule="evenodd"
                  clip-rule="evenodd"
                  d="M125 0H0V273H125H250L250 86L125 86V0Z"
                  fill="#C7B9FF"></path>
            <path fill-rule="evenodd"
                  clip-rule="evenodd"
                  d="M41.5599 63.9999H37.3104V44.7466H29.3672V41.1182H49.6339V44.7466H41.5599V63.9999ZM57.1733 63.9999H52.9239V41.1182H57.1733V50.3689H67.895V41.1182H72.1445V63.9999H67.895V54.03H57.1733V63.9999ZM78.0784 63.9999H94.8801V60.3715H82.3279V53.9973H91.7421V50.4016H82.3279V44.7466H94.8801V41.1182H78.0784V63.9999ZM129.103 231.43C129.103 235.352 126.194 238.49 119.983 238.49C114.132 238.49 110.961 235.418 110.013 231.757L114.034 230.22C114.655 232.639 116.453 234.96 120.048 234.96C123.252 234.96 124.69 233.587 124.69 231.724C124.69 230.089 123.546 229.043 120.768 228.553L117.858 228.063C113.805 227.376 111.157 225.48 111.157 221.394C111.157 217.701 114.263 214.628 119.754 214.628C125.246 214.628 127.959 217.635 128.842 220.414L124.886 221.95C124.265 220.087 122.827 218.158 119.624 218.158C116.747 218.158 115.505 219.564 115.505 221.198C115.505 222.767 116.616 223.65 118.741 224.042L121.716 224.565C126.063 225.284 129.103 227.474 129.103 231.43ZM142.588 238H138.339V218.747H130.395V215.118H150.662V218.747H142.588V238ZM163.518 238.49C170.742 238.49 175.416 233.554 175.416 226.592C175.416 219.662 170.676 214.628 163.518 214.628C156.326 214.628 151.619 219.662 151.619 226.592C151.619 233.554 156.294 238.49 163.518 238.49ZM163.518 234.862C158.843 234.862 156.065 231.332 156.065 226.592C156.065 221.787 158.843 218.256 163.518 218.256C168.192 218.256 170.938 221.787 170.938 226.592C170.938 231.332 168.192 234.862 163.518 234.862ZM184.122 238H179.873V215.118H190.529C195.367 215.118 198.178 217.668 198.178 221.231C198.178 225.088 195.367 226.984 192.49 227.507C195.4 227.867 196.969 229.272 197.524 232.41L198.57 238H193.994L193.209 232.77C192.784 229.991 191.444 228.978 188.502 228.978H184.122V238ZM184.122 218.747V225.415H189.777C192.033 225.415 193.732 224.369 193.732 222.081C193.732 219.793 192.033 218.747 189.777 218.747H184.122ZM203.112 238H219.914V234.372H207.361V227.997H216.776V224.402H207.361V218.747H219.914V215.118H203.112V238ZM69 126.514V131.221L63.3449 133.15V142.793L69 144.787L69 149.363L46.1182 140.701V135.046L69 126.514ZM54.1922 139.557L59.7165 141.518V134.425L54.1595 136.321L49.5505 137.955C50.1664 138.16 50.9416 138.429 52.2203 138.873L52.2249 138.875L52.226 138.875C52.7783 139.067 53.4245 139.291 54.1922 139.557ZM69 178.509V174.26H58.5398H49.9755L69 167.33V163.799L49.9755 156.837H58.5398H69V152.587H46.1182V159.321L58.0821 163.701C61.1221 164.813 62.0701 165.172 62.7238 165.434C62.1355 165.695 61.1221 166.088 58.0821 167.166L46.1182 171.547V178.509H69ZM65.437 187.37C67.006 188.252 69.4903 190.279 69.4903 194.953C69.4903 201.033 65.1101 205.773 57.6245 205.773C50.7273 205.773 45.6279 200.576 45.6279 193.94C45.6279 187.893 48.9294 184.559 52.5578 183.349L54.1269 187.468C51.4137 188.416 49.289 190.279 49.289 193.973C49.289 197.993 52.2636 201.328 57.5918 201.328C62.8873 201.328 65.8619 198.157 65.8619 194.103C65.8619 189.985 63.3449 187.925 61.0894 187.697L61.0894 195.313H57.4284L57.4284 183.447H69V187.37H65.437ZM69 214.453V210.204H46.1182V214.453H69ZM69 235.362V231.113H59.9127V220.849H56.2516V231.113H49.7466V218.201H46.1183V235.362H69Z"
                  fill="black"></path>
      </symbol>

      <symbol id="logo-cross-lilac" viewBox="0 0 250 273">
      
            <path fill-rule="evenodd"
                  clip-rule="evenodd"
                  d="M218.125 0.5H31.875V43.625H8.14125e-06L0 229.875H31.875V273H218.125V229.875H250L250 43.625H218.125V0.5Z"
                  fill="#C7B9FF"></path>
            <path fill-rule="evenodd"
                  clip-rule="evenodd"
                  d="M103.809 53.2499H99.5594V33.9966H91.6162V30.3682H111.883V33.9966H103.809V53.2499ZM119.422 53.2499H115.173V30.3682H119.422V39.6189H130.144V30.3682H134.394V53.2499H130.144V43.28H119.422V53.2499ZM140.327 53.2499H157.129V49.6215H144.577V43.2473H153.991V39.6516H144.577V33.9966H157.129V30.3682H140.327V53.2499ZM228.374 98.8847V82.083H224.746V94.6352H218.371V85.221H214.776V94.6352H209.121V82.083H205.492V98.8847H228.374ZM228.374 117.874V122.124H205.492V111.468C205.492 106.63 208.042 103.819 211.605 103.819C215.462 103.819 217.358 106.63 217.881 109.506C218.241 106.597 219.646 105.028 222.784 104.472L228.374 103.426V108.003L223.144 108.787C220.365 109.212 219.352 110.552 219.352 113.494V117.874H228.374ZM209.121 112.219V117.874H215.789V112.219C215.789 109.964 214.743 108.264 212.455 108.264C210.167 108.264 209.121 109.964 209.121 112.219ZM228.864 138.479C228.864 131.255 223.928 126.581 216.966 126.581C210.036 126.581 205.002 131.32 205.002 138.479C205.002 145.67 210.036 150.377 216.966 150.377C223.928 150.377 228.864 145.703 228.864 138.479ZM225.236 138.479C225.236 143.153 221.706 145.932 216.966 145.932C212.161 145.932 208.63 143.153 208.63 138.479C208.63 133.805 212.161 131.059 216.966 131.059C221.706 131.059 225.236 133.805 225.236 138.479ZM228.374 159.409V163.658H209.121V171.601H205.492V151.335H209.121V159.409H228.374ZM221.804 172.894C225.726 172.894 228.864 175.803 228.864 182.014C228.864 187.865 225.792 191.035 222.131 191.983L220.594 187.963C223.013 187.342 225.334 185.544 225.334 181.948C225.334 178.745 223.961 177.306 222.098 177.306C220.463 177.306 219.417 178.451 218.927 181.229L218.437 184.138C217.75 188.192 215.854 190.839 211.768 190.839C208.075 190.839 205.002 187.734 205.002 182.242C205.002 176.751 208.009 174.038 210.788 173.155L212.324 177.11C210.461 177.731 208.532 179.17 208.532 182.373C208.532 185.25 209.938 186.492 211.572 186.492C213.141 186.492 214.024 185.38 214.416 183.256L214.939 180.281C215.658 175.934 217.848 172.894 221.804 172.894ZM83.0043 142.812C82.1217 144.381 80.0951 146.865 75.4207 146.865C69.3407 146.865 64.6009 142.485 64.6009 134.999C64.6009 128.102 69.7983 123.003 76.434 123.003C82.4813 123.003 85.8155 126.304 87.025 129.933L82.9063 131.502C81.9583 128.789 80.0951 126.664 76.4013 126.664C72.3807 126.664 69.0465 129.639 69.0465 134.967C69.0465 140.262 72.2172 143.237 76.2706 143.237C80.3893 143.237 82.4486 140.72 82.6775 138.464H75.0611V134.803H86.9269V146.375H83.0043V142.812ZM35.0117 146.375H39.2612V137.288H49.5253V133.627H39.2612V127.122H52.173V123.493H35.0117V146.375ZM55.9207 146.375H60.1701V123.493H55.9207V146.375ZM91.8649 146.375H96.1143V135.915V127.35L103.044 146.375H106.575L113.537 127.35V135.915V146.375H117.787V123.493H111.053L106.673 135.457C105.561 138.497 105.202 139.445 104.94 140.099C104.679 139.51 104.286 138.497 103.208 135.457L98.8274 123.493H91.8649V146.375ZM143.86 146.375H139.153L137.224 140.72H127.581L125.587 146.375H121.011L129.673 123.493H135.328L143.86 146.375ZM130.817 131.567L128.856 137.092H135.949L134.053 131.535L132.419 126.926C132.213 127.542 131.944 128.319 131.499 129.601C131.307 130.154 131.083 130.8 130.817 131.567Z"
                  fill="black"></path>
      </symbol>

      <symbol id="logo-full"
              viewBox="0 0 221 18">
        
            <path d="M5.57377 17.1284H9.10383V3.79781H14.6776V0.871584H0V3.79781H5.57377V17.1284Z"
                  fill="black" />
            <path d="M16.8686 17.1284H20.3987V10.2309H27.3659V17.1284H30.896V0.871584H27.3659V7.30464H20.3987V0.871584H16.8686V17.1284Z"
                  fill="black" />
            <path d="M34.8083 17.1284H47.0938V14.2022H38.3384V10.2077H44.9572V7.32787H38.3384V3.79781H47.0938V0.871584H34.8083V17.1284Z"
                  fill="black" />
            <path d="M55.6056 17.1284H59.1357V10.9508H66.3119V8.02459H59.1357V3.79781H68.1002V0.871584H55.6056V17.1284Z"
                  fill="black" />
            <path d="M70.6196 17.1284H74.1497V0.871584H70.6196V17.1284Z"
                  fill="black" />
            <path d="M84.7703 17.5C88.0449 17.5 89.4151 15.8743 90.0886 14.8292V17.1284H93.2703V8.76776H84.5613V11.694H89.8099C89.6009 13.0178 88.37 14.597 85.6064 14.597C82.9588 14.597 80.7525 12.5997 80.7525 9.06967C80.7525 5.51639 82.8195 3.42623 85.6993 3.42623C88.2307 3.42623 89.4151 4.91257 90.0422 6.70082L93.3632 5.46994C92.5039 2.8224 90.1118 0.5 85.6993 0.5C80.7758 0.5 77.0831 4.23907 77.0831 9.06967C77.0831 14.5041 80.7293 17.5 84.7703 17.5Z"
                  fill="black" />
            <path d="M96.5425 17.1284H100.073V10.4399V3.89071L104.555 17.1284H107.69L112.219 3.86749V10.4399V17.1284H115.749V0.871584H110.175L107.458 8.79098C106.691 11.0437 106.436 11.7404 106.227 12.2514C106.041 11.7869 105.762 11.0437 104.996 8.79098L102.325 0.871584H96.5425V17.1284Z"
                  fill="black" />
            <path d="M130.847 17.1284H134.749L128.594 0.871584H124.019L117.818 17.1284H121.604L122.928 13.3197H129.547L130.847 17.1284ZM123.95 10.3934L125.204 6.84016C125.854 4.98224 126.086 4.28552 126.272 3.70492L127.34 6.81694L128.548 10.3934H123.95Z"
                  fill="black" />
            <path d="M147.874 17.5C152.635 17.5 154.725 15.1544 154.725 12.3675C154.725 9.37158 152.403 7.79235 149.036 7.32787L147.015 7.04918C145.691 6.86339 144.925 6.25956 144.925 5.30738C144.925 4.30874 145.598 3.31011 147.689 3.31011C149.756 3.31011 150.824 4.47131 151.312 5.98087L154.563 4.8429C153.866 2.59016 151.846 0.5 147.689 0.5C143.462 0.5 141.256 2.84563 141.256 5.44672C141.256 8.46585 143.253 9.88251 146.388 10.3238L148.409 10.6025C150.359 10.8811 151.056 11.6011 151.056 12.5997C151.056 13.7609 150.174 14.6899 147.874 14.6899C145.32 14.6899 144.089 12.9713 143.764 11.3689L140.443 12.4836C141.07 15.1544 143.346 17.5 147.874 17.5Z"
                  fill="black" />
            <path d="M161.111 17.1284H164.641V3.79781H170.215V0.871584H155.538V3.79781H161.111V17.1284Z"
                  fill="black" />
            <path d="M179.527 17.5C185.008 17.5 188.213 13.9235 188.213 9.04645C188.213 4.19262 184.938 0.5 179.527 0.5C174.116 0.5 170.841 4.19262 170.841 9.04645C170.841 13.9235 174.046 17.5 179.527 17.5ZM179.55 14.5738C176.368 14.5738 174.534 12.2049 174.534 9.02322C174.534 5.79508 176.368 3.42623 179.55 3.42623C182.709 3.42623 184.52 5.79508 184.52 9.02322C184.52 12.2049 182.709 14.5738 179.55 14.5738Z"
                  fill="black" />
            <path d="M191.14 17.1284H194.67V10.9508H197.619C199.64 10.9508 200.499 11.6475 200.754 13.5287L201.242 17.1284H205.004L204.331 13.2268C203.913 10.8115 202.589 9.88251 200.592 9.69672C202.589 9.34836 204.726 8.07104 204.726 5.16803C204.726 2.59016 202.659 0.871584 199.175 0.871584H191.14V17.1284ZM194.67 8.09426V3.79781H198.502C199.965 3.79781 201.056 4.47131 201.056 5.93443C201.056 7.42076 199.965 8.09426 198.502 8.09426H194.67Z"
                  fill="black" />
            <path d="M207.991 17.1284H220.276V14.2022H211.521V10.2077H218.14V7.32787H211.521V3.79781H220.276V0.871584H207.991V17.1284Z"
                  fill="black" />
      </symbol>
      
      <symbol id="logo-welcome"
              viewBox="0 0 148 94" aria-label="The Figma store">
            
                    <path d="M9.34284 27.0341H14.3411V4.38832H23.8377V0.120605H0V4.38832H9.34284V27.0341Z" fill="black"/>
                    <path d="M27.7074 27.0341H32.7056V15.3075H45.3166V27.0341H50.3148V0.120605H45.3166V11.0014H32.7056V0.120605H27.7074V27.0341Z" fill="black"/>
                    <path d="M3.11428 60.0753H8.11251V49.3868H20.1851V45.0806H8.11251V37.4295H23.2994V33.1618H3.11428V60.0753Z" fill="black"/>
                    <path d="M67.5018 60.652C72.9999 60.652 75.3836 57.73 76.4217 55.8845V60.0753H81.0355V46.4647H67.0789V50.7709H76.0373C75.7681 53.4238 73.3459 56.3843 68.5015 56.3843C63.7339 56.3843 60.0045 52.8855 60.0045 46.657C60.0045 40.39 63.9262 36.8912 68.6553 36.8912C72.9999 36.8912 75.1914 39.3903 76.3064 42.5815L81.1508 40.736C79.7283 36.4683 75.8066 32.585 68.6937 32.585C60.8888 32.585 54.7756 38.5829 54.7756 46.6954C54.7756 55.5 60.3505 60.652 67.5018 60.652Z" fill="black"/>
                    <path d="M86.8435 60.0753H91.8417V37.6986L99.9927 60.0753H104.145L112.334 37.6986V60.0753H117.333V33.1618H109.412L104.26 47.2337C102.953 50.8094 102.53 51.9243 102.223 52.6933C101.915 52.0012 101.454 50.8094 100.185 47.2337L95.0329 33.1618H86.8435V60.0753Z" fill="black"/>
                    <path d="M142.464 60.0753H148L137.965 33.1618H131.314L121.125 60.0753H126.508L128.853 53.4238H140.195L142.464 60.0753ZM130.352 49.1561L132.659 42.6584C133.697 39.6595 134.197 38.2369 134.543 37.1988L136.466 42.6199L138.696 49.1561H130.352Z" fill="black"/>
                    <path d="M12.534 93.6932C19.8391 93.6932 23.261 90.0022 23.261 85.3884C23.261 80.7362 19.6853 78.1602 14.5718 77.3144L11.073 76.6992C8.57388 76.2378 7.26665 75.1997 7.26665 73.3542C7.26665 71.4318 8.72767 69.7786 12.1111 69.7786C15.879 69.7786 17.5707 72.047 18.3012 74.2385L22.9534 72.4315C21.9153 69.1634 18.7241 65.6262 12.2649 65.6262C5.80563 65.6262 2.15308 69.2403 2.15308 73.5849C2.15308 78.3909 5.26736 80.6209 10.0349 81.4283L13.4568 82.005C16.7248 82.5817 18.0705 83.8121 18.0705 85.7345C18.0705 87.926 16.3788 89.5408 12.6109 89.5408C8.38164 89.5408 6.26701 86.811 5.5365 83.9659L0.807406 85.7729C1.92239 90.0791 5.65184 93.6932 12.534 93.6932Z" fill="black"/>
                    <path d="M34.1237 93.1165H39.1219V70.4706H48.6186V66.2029H24.7809V70.4706H34.1237V93.1165Z" fill="black"/>
                    <path d="M81.7748 93.1165H86.773V82.5048H91.925C95.3853 82.5048 96.9617 83.6967 97.4615 86.9648L98.3843 93.1165H103.767L102.537 86.5419C101.883 82.8509 100.038 81.1976 96.6157 80.7747C99.9991 80.1595 103.306 77.9295 103.306 73.3927C103.306 69.2019 99.9991 66.2029 94.3088 66.2029H81.7748V93.1165ZM86.773 78.314V70.4706H93.4245C96.0774 70.4706 98.0767 71.701 98.0767 74.3923C98.0767 77.0837 96.0774 78.314 93.4245 78.314H86.773Z" fill="black"/>
                    <path d="M109.109 93.1165H128.871V88.8487H114.107V81.3514H125.18V77.1221H114.107V70.4706H128.871V66.2029H109.109V93.1165Z" fill="black"/>
                    <path d="M55.6081 0.125629H74.6473V17.3886C74.6473 22.6462 70.3852 26.9082 65.1277 26.9082C59.8701 26.9082 55.6081 22.6462 55.6081 17.3886V0.125629Z" fill="#C7B9FF" stroke="#C7B9FF" stroke-width="0.251258"/>
                    <path d="M70.6602 15.2529L70.6602 7.7058L76.7432 7.7058C78.8272 7.7058 80.5167 9.39528 80.5167 11.4794C80.5167 13.5634 78.8272 15.2529 76.7431 15.2529L70.6602 15.2529Z" stroke="#C7B9FF" stroke-width="4"/>
                    <path fill-rule="evenodd" clip-rule="evenodd" d="M75.3123 66.0825H61.4256V79.8303H54.6191C50.7844 79.8303 47.6758 82.939 47.6758 86.7737C47.6758 90.6084 50.7844 93.717 54.6191 93.717H68.3669V93.7169C68.3676 93.7169 68.3683 93.7169 68.369 93.7169C72.2037 93.7169 75.3123 90.6083 75.3123 86.7736V66.0825Z" fill="#0FA958"/>
                    <path fill-rule="evenodd" clip-rule="evenodd" d="M38.8957 38.2035C41.7467 38.2035 44.0579 35.8923 44.0579 33.0412C44.0579 33.0412 44.0579 33.0411 44.0579 33.041H45.3508H52.4798V41.056H47.5056L52.6186 60.0747H39.0339V41.056H39.032V60.0751H25.4473L30.5603 41.0564H25.4473V33.0414H32.7151H33.7335C33.7336 35.8923 36.0447 38.2035 38.8957 38.2035Z" fill="#F24E1E"/>
               
  </symbol>
</svg>