<svg width="221" height="18" viewBox="0 0 221 18" fill="none" xmlns="http://www.w3.org/2000/svg">
<path d="M5.57377 17.1284H9.10383V3.79781H14.6776V0.871584H0V3.79781H5.57377V17.1284Z" fill="black"/>
<path d="M16.8686 17.1284H20.3987V10.2309H27.3659V17.1284H30.896V0.871584H27.3659V7.30464H20.3987V0.871584H16.8686V17.1284Z" fill="black"/>
<path d="M34.8083 17.1284H47.0938V14.2022H38.3384V10.2077H44.9572V7.32787H38.3384V3.79781H47.0938V0.871584H34.8083V17.1284Z" fill="black"/>
<path d="M55.6056 17.1284H59.1357V10.9508H66.3119V8.02459H59.1357V3.79781H68.1002V0.871584H55.6056V17.1284Z" fill="black"/>
<path d="M70.6196 17.1284H74.1497V0.871584H70.6196V17.1284Z" fill="black"/>
<path d="M84.7703 17.5C88.0449 17.5 89.4151 15.8743 90.0886 14.8292V17.1284H93.2703V8.76776H84.5613V11.694H89.8099C89.6009 13.0178 88.37 14.597 85.6064 14.597C82.9588 14.597 80.7525 12.5997 80.7525 9.06967C80.7525 5.51639 82.8195 3.42623 85.6993 3.42623C88.2307 3.42623 89.4151 4.91257 90.0422 6.70082L93.3632 5.46994C92.5039 2.8224 90.1118 0.5 85.6993 0.5C80.7758 0.5 77.0831 4.23907 77.0831 9.06967C77.0831 14.5041 80.7293 17.5 84.7703 17.5Z" fill="black"/>
<path d="M96.5425 17.1284H100.073V10.4399V3.89071L104.555 17.1284H107.69L112.219 3.86749V10.4399V17.1284H115.749V0.871584H110.175L107.458 8.79098C106.691 11.0437 106.436 11.7404 106.227 12.2514C106.041 11.7869 105.762 11.0437 104.996 8.79098L102.325 0.871584H96.5425V17.1284Z" fill="black"/>
<path d="M130.847 17.1284H134.749L128.594 0.871584H124.019L117.818 17.1284H121.604L122.928 13.3197H129.547L130.847 17.1284ZM123.95 10.3934L125.204 6.84016C125.854 4.98224 126.086 4.28552 126.272 3.70492L127.34 6.81694L128.548 10.3934H123.95Z" fill="black"/>
<path d="M147.874 17.5C152.635 17.5 154.725 15.1544 154.725 12.3675C154.725 9.37158 152.403 7.79235 149.036 7.32787L147.015 7.04918C145.691 6.86339 144.925 6.25956 144.925 5.30738C144.925 4.30874 145.598 3.31011 147.689 3.31011C149.756 3.31011 150.824 4.47131 151.312 5.98087L154.563 4.8429C153.866 2.59016 151.846 0.5 147.689 0.5C143.462 0.5 141.256 2.84563 141.256 5.44672C141.256 8.46585 143.253 9.88251 146.388 10.3238L148.409 10.6025C150.359 10.8811 151.056 11.6011 151.056 12.5997C151.056 13.7609 150.174 14.6899 147.874 14.6899C145.32 14.6899 144.089 12.9713 143.764 11.3689L140.443 12.4836C141.07 15.1544 143.346 17.5 147.874 17.5Z" fill="black"/>
<path d="M161.111 17.1284H164.641V3.79781H170.215V0.871584H155.538V3.79781H161.111V17.1284Z" fill="black"/>
<path d="M179.527 17.5C185.008 17.5 188.213 13.9235 188.213 9.04645C188.213 4.19262 184.938 0.5 179.527 0.5C174.116 0.5 170.841 4.19262 170.841 9.04645C170.841 13.9235 174.046 17.5 179.527 17.5ZM179.55 14.5738C176.368 14.5738 174.534 12.2049 174.534 9.02322C174.534 5.79508 176.368 3.42623 179.55 3.42623C182.709 3.42623 184.52 5.79508 184.52 9.02322C184.52 12.2049 182.709 14.5738 179.55 14.5738Z" fill="black"/>
<path d="M191.14 17.1284H194.67V10.9508H197.619C199.64 10.9508 200.499 11.6475 200.754 13.5287L201.242 17.1284H205.004L204.331 13.2268C203.913 10.8115 202.589 9.88251 200.592 9.69672C202.589 9.34836 204.726 8.07104 204.726 5.16803C204.726 2.59016 202.659 0.871584 199.175 0.871584H191.14V17.1284ZM194.67 8.09426V3.79781H198.502C199.965 3.79781 201.056 4.47131 201.056 5.93443C201.056 7.42076 199.965 8.09426 198.502 8.09426H194.67Z" fill="black"/>
<path d="M207.991 17.1284H220.276V14.2022H211.521V10.2077H218.14V7.32787H211.521V3.79781H220.276V0.871584H207.991V17.1284Z" fill="black"/>
</svg>
