<svg xmlns="http://www.w3.org/2000/svg">

     <symbol id="bio-pill"
             viewBox="0 0 239 149">
          <rect x="238.4"
                width="149"
                height="238.4"
                rx="74.5"
                transform="rotate(90 238.4 0)"
                fill="#0FA958"></rect>
          <path d="M79.1566 82H82.8046V74.872H90.0046V82H93.6526V65.2H90.0046V71.848H82.8046V65.2H79.1566V82ZM97.6957 82H110.392V78.976H101.344V74.848H108.184V71.872H101.344V68.224H110.392V65.2H97.6957V82ZM113.539 82H126.235V78.904H117.187V65.2H113.539V82ZM128.493 82H141.189V78.904H132.141V65.2H128.493V82ZM150.875 82.384C156.539 82.384 159.851 78.688 159.851 73.648C159.851 68.632 156.467 64.816 150.875 64.816C145.283 64.816 141.899 68.632 141.899 73.648C141.899 78.688 145.211 82.384 150.875 82.384ZM150.899 79.36C147.611 79.36 145.715 76.912 145.715 73.624C145.715 70.288 147.611 67.84 150.899 67.84C154.163 67.84 156.035 70.288 156.035 73.624C156.035 76.912 154.163 79.36 150.899 79.36Z"
                fill="black"></path>
     </symbol>

      <symbol id="bio-hourglass"
             viewBox="0 0 183 161">
          <path fill-rule="evenodd"
                clip-rule="evenodd"
                d="M3.8147e-06 0H91.5H183C125.812 44.4791 125.812 115.646 183 160.125L91.5 160.125H3.8147e-06C57.1875 115.646 57.1875 44.4791 3.8147e-06 0Z"
                fill="#0FA958"></path>
          <path d="M100 119.843L100 116.195L92.872 116.195L92.872 108.995L100 108.995L100 105.347L83.2 105.347L83.2 108.995L89.848 108.995L89.848 116.195L83.2 116.195L83.2 119.843L100 119.843ZM100 101.304L100 88.6083L96.976 88.6083L96.976 97.6563L92.848 97.6563L92.848 90.8163L89.872 90.8163L89.872 97.6563L86.224 97.6563L86.224 88.6083L83.2 88.6083L83.2 101.304L100 101.304ZM100 85.4606L100 72.7646L96.904 72.7646L96.904 81.8126L83.2 81.8126L83.2 85.4606L100 85.4606ZM100 70.5074L100 57.8114L96.904 57.8114L96.904 66.8594L83.2 66.8594L83.2 70.5074L100 70.5074ZM100.384 48.1254C100.384 42.4614 96.688 39.1494 91.648 39.1494C86.632 39.1494 82.816 42.5334 82.816 48.1254C82.816 53.7174 86.632 57.1014 91.648 57.1014C96.688 57.1014 100.384 53.7894 100.384 48.1254ZM97.36 48.1014C97.36 51.3894 94.912 53.2854 91.624 53.2854C88.288 53.2854 85.84 51.3894 85.84 48.1014C85.84 44.8374 88.288 42.9654 91.624 42.9654C94.912 42.9654 97.36 44.8374 97.36 48.1014Z"
                fill="black"></path>
     </symbol>
     
      <symbol id="sunflower-square"
             viewBox="0 0 153 153">
          <rect width="153"
                height="153"
                rx="39.2806"
                fill="#FFC700"></rect>
          <path d="M51.2926 84.384C56.9566 84.384 60.2686 80.688 60.2686 75.648C60.2686 70.632 56.8846 66.816 51.2926 66.816C45.7006 66.816 42.3166 70.632 42.3166 75.648C42.3166 80.688 45.6286 84.384 51.2926 84.384ZM51.3166 81.36C48.0286 81.36 46.1326 78.912 46.1326 75.624C46.1326 72.288 48.0286 69.84 51.3166 69.84C54.5806 69.84 56.4526 72.288 56.4526 75.624C56.4526 78.912 54.5806 81.36 51.3166 81.36ZM63.2933 84H66.9413V76.872H74.1413V84H77.7893V67.2H74.1413V73.848H66.9413V67.2H63.2933V84ZM87.4808 84H91.1288V76.872H98.3288V84H101.977V67.2H98.3288V73.848H91.1288V67.2L87.4808 67.2V84ZM106.02 84H109.668V67.2H106.02V84Z"
                fill="black"></path>
     </symbol>

     <symbol id="sunflower-barbell"
             viewBox="0 0 241 134">
          <path d="M135.321 121.526C126.777 115.486 113.986 115.486 105.441 121.526C94.5435 129.23 81.2396 133.757 66.8785 133.757C29.9425 133.757 0 103.814 0 66.8785C0 29.9425 29.9425 0 66.8785 0C81.2396 0 94.5435 4.52655 105.441 12.2307C113.986 18.2711 126.777 18.2711 135.321 12.2307C146.219 4.52655 159.523 0 173.884 0C210.82 0 240.763 29.9425 240.763 66.8785C240.763 103.814 210.82 133.757 173.884 133.757C159.523 133.757 146.219 129.23 135.321 121.526Z"
                fill="#FFC700"></path>
          <path d="M80.1449 77H83.7929V70.616H91.2089V67.592H83.7929V63.224H93.0569V60.2H80.1449V77ZM95.6605 77H99.3085V70.616H102.357C104.445 70.616 105.333 71.336 105.597 73.28L106.101 77H109.989L109.293 72.968C108.861 70.472 107.493 69.512 105.429 69.32C107.493 68.96 109.701 67.64 109.701 64.64C109.701 61.976 107.565 60.2 103.965 60.2L95.6605 60.2V77ZM99.3085 67.664V63.224H103.269C104.781 63.224 105.909 63.92 105.909 65.432C105.909 66.968 104.781 67.664 103.269 67.664H99.3085ZM113.075 77H125.771V73.976H116.723V69.848H123.563V66.872H116.723V63.224H125.771V60.2H113.075V77ZM135.254 77.384C140.174 77.384 142.334 74.96 142.334 72.08C142.334 68.984 139.934 67.352 136.454 66.872L134.366 66.584C132.998 66.392 132.206 65.768 132.206 64.784C132.206 63.752 132.902 62.72 135.062 62.72C137.198 62.72 138.302 63.92 138.806 65.48L142.166 64.304C141.446 61.976 139.358 59.816 135.062 59.816C130.694 59.816 128.414 62.24 128.414 64.928C128.414 68.048 130.478 69.512 133.718 69.968L135.806 70.256C137.822 70.544 138.542 71.288 138.542 72.32C138.542 73.52 137.63 74.48 135.254 74.48C132.614 74.48 131.342 72.704 131.006 71.048L127.574 72.2C128.222 74.96 130.574 77.384 135.254 77.384ZM145.348 77H148.996V69.872H156.196V77H159.844V60.2H156.196V66.848H148.996V60.2H145.348V77Z"
                fill="black"></path>
     </symbol>
     
     <symbol id="sunflower-figure"
             viewBox="0 0 242 242">
          <path fill-rule="evenodd"
                clip-rule="evenodd"
                d="M93.8593 93.8596C77.0403 67.5333 72.3586 42.362 84.2302 30.4904C100.632 14.0883 142.421 29.2843 177.568 64.4315C212.716 99.5787 227.911 141.368 211.509 157.77C199.638 169.641 174.467 164.959 148.14 148.14C164.959 174.467 169.641 199.638 157.769 211.51C141.367 227.912 99.5784 212.716 64.4312 177.569C29.284 142.421 14.0881 100.632 30.4901 84.2305C42.3618 72.3588 67.533 77.0406 93.8593 93.8596Z"
                fill="#FFC700"></path>
          <path d="M107.206 153.179L109.785 150.599L97.9057 138.72L95.3262 141.299L107.206 153.179ZM116.636 143.749L125.613 134.771L123.424 132.582L117.026 138.98L107.336 129.29L104.756 131.869L116.636 143.749ZM127.209 133.175L129.788 130.596L117.909 118.716L115.33 121.296L127.209 133.175ZM140.366 120.018L143.608 116.776L131.304 114.825L131.151 105.474L127.689 108.936L128.283 118.219L125.263 115.198L123.345 113.28L120.765 115.86L132.645 127.739L135.224 125.16L131.423 121.358L131.372 118.423L140.366 120.018ZM144.826 115.558L153.803 106.581L151.665 104.443L145.267 110.841L142.348 107.922L147.185 103.085L145.08 100.981L140.244 105.817L137.664 103.238L144.062 96.8398L141.924 94.7016L132.946 103.679L144.826 115.558Z"
                fill="black"></path>
     </symbol>
     
     <symbol id="sunflower-oval"
             viewBox="0 0 261 226">
          <ellipse rx="58.0911"
                   ry="117.5"
                   transform="matrix(0.544639 0.838671 0.838671 -0.544639 130.182 112.724)"
                   fill="#FFC700"></ellipse>
          <path d="M114.648 135.086C119.398 132.001 120.163 127.097 117.418 122.87C114.686 118.663 109.769 117.306 105.08 120.352C100.39 123.397 99.63 128.441 102.362 132.648C105.107 136.874 109.898 138.17 114.648 135.086ZM113.021 132.536C110.263 134.327 107.34 133.307 105.549 130.549C103.732 127.751 103.989 124.666 106.747 122.875C109.484 121.097 112.387 122.131 114.204 124.928C115.995 127.686 115.758 130.759 113.021 132.536ZM124.503 128.227L127.563 126.241L123.681 120.262L129.719 116.341L133.601 122.319L136.661 120.332L127.511 106.243L124.451 108.229L128.072 113.805L122.034 117.726L118.413 112.151L115.353 114.138L124.503 128.227ZM144.789 115.054L147.848 113.067L143.966 107.089L150.004 103.168L153.887 109.146L156.946 107.159L147.796 93.0692L144.737 95.056L148.357 100.631L142.319 104.553L138.698 98.9774L135.639 100.964L144.789 115.054ZM160.337 104.957L163.396 102.97L154.246 88.8803L151.187 90.8672L160.337 104.957Z"
                fill="black"></path>
     </symbol>

     <symbol id="glow-arch"
             viewBox="0 0 138 158">
          <path d="M0 158L-3.86327e-06 69.6187C-5.52275e-06 31.6541 30.7764 0.877699 68.741 0.877698C106.706 0.877696 137.482 31.6541 137.482 69.6187L137.482 158L0 158Z"
                fill="#F24E1E"></path>
          <path d="M76 106.434L76 102.786L69.16 102.786L59.2 96.8101L59.2 100.914L62.416 102.69L65.704 104.514C65.2 104.826 64.168 105.426 62.464 106.41L59.2 108.306L59.2 112.53L69.16 106.434L76 106.434ZM76 94.5113L76 81.8153L72.976 81.8153L72.976 90.8633L68.848 90.8633L68.848 84.0233L65.872 84.0233L65.872 90.8633L62.224 90.8633L62.224 81.8153L59.2 81.8153L59.2 94.5113L76 94.5113ZM76.384 72.3316C76.384 67.4116 73.96 65.2516 71.08 65.2516C67.984 65.2516 66.352 67.6516 65.872 71.1316L65.584 73.2196C65.392 74.5876 64.768 75.3796 63.784 75.3796C62.752 75.3796 61.72 74.6836 61.72 72.5236C61.72 70.3876 62.92 69.2836 64.48 68.7796L63.304 65.4196C60.976 66.1396 58.816 68.2276 58.816 72.5236C58.816 76.8916 61.24 79.1716 63.928 79.1716C67.048 79.1716 68.512 77.1076 68.968 73.8676L69.256 71.7796C69.544 69.7636 70.288 69.0436 71.32 69.0436C72.52 69.0436 73.48 69.9556 73.48 72.3316C73.48 74.9716 71.704 76.2436 70.048 76.5796L71.2 80.0116C73.96 79.3636 76.384 77.0116 76.384 72.3316Z"
                fill="black"></path>
     </symbol>

     <symbol id="glow-sweet"
             viewBox="0 0 233 159">
          <path d="M0 53L62.7514 24.4133C96.795 8.90448 135.888 8.90448 169.932 24.4133L232.683 53V117.634L159.648 143.602C131.636 153.562 101.047 153.562 73.0353 143.602L0 117.634V53Z"
                fill="#F24E1E"></path>
          <path d="M80.3559 94.384C85.2759 94.384 87.4359 91.96 87.4359 89.08C87.4359 85.984 85.0359 84.352 81.5559 83.872L79.4679 83.584C78.0999 83.392 77.3079 82.768 77.3079 81.784C77.3079 80.752 78.0039 79.72 80.1639 79.72C82.2999 79.72 83.4039 80.92 83.9079 82.48L87.2679 81.304C86.5479 78.976 84.4599 76.816 80.1639 76.816C75.7959 76.816 73.5159 79.24 73.5159 81.928C73.5159 85.048 75.5799 86.512 78.8199 86.968L80.9079 87.256C82.9239 87.544 83.6439 88.288 83.6439 89.32C83.6439 90.52 82.7319 91.48 80.3559 91.48C77.7159 91.48 76.4439 89.704 76.1079 88.048L72.6759 89.2C73.3239 91.96 75.6759 94.384 80.3559 94.384ZM93.2375 94H97.4135L99.7415 85.528C100.582 82.504 100.846 81.544 101.038 80.776C101.278 81.568 101.542 82.504 102.358 85.552L104.59 94H108.67L113.278 77.2H109.414L107.95 83.848C107.014 88.144 106.87 88.792 106.654 89.68C106.462 88.84 106.222 87.88 105.55 85.312L103.414 77.2H98.6615L96.5255 85.312L95.3975 89.68C95.2055 88.864 95.0375 88.096 94.1255 83.848L92.6855 77.2H88.7015L93.2375 94ZM115.668 94H128.364V90.976H119.316V86.848H126.156V83.872H119.316V80.224H128.364V77.2H115.668V94ZM131.512 94H144.208V90.976H135.16V86.848H142V83.872H135.16V80.224L144.208 80.224V77.2L131.512 77.2V94ZM151.34 94L154.988 94V80.224H160.748V77.2H145.58V80.224H151.34V94Z"
                fill="black"></path>
     </symbol>

     <symbol id="glow-sup"
             viewBox="0 0 320 258">
          <path d="M29.4971 91.9339L90.2493 142.13L51.7195 210.876L289.603 166.431L228.851 116.235L267.381 47.489L29.4971 91.9339Z"
                fill="#F24E1E"></path>
          <path d="M144.17 141.546C149.006 140.643 150.684 137.864 150.156 135.033C149.587 131.989 146.928 130.826 143.419 130.993L141.314 131.093C139.934 131.156 139.041 130.688 138.86 129.72C138.671 128.706 139.165 127.564 141.289 127.167C143.388 126.775 144.694 127.752 145.476 129.193L148.563 127.42C147.428 125.263 144.978 123.524 140.755 124.312C136.462 125.114 134.666 127.916 135.159 130.558C135.732 133.625 138.03 134.685 141.298 134.539L143.404 134.438C145.438 134.351 146.283 134.95 146.472 135.965C146.692 137.144 145.972 138.256 143.637 138.692C141.042 139.177 139.465 137.664 138.831 136.098L135.669 137.861C136.812 140.455 139.569 142.406 144.17 141.546ZM161.311 138.345C165.605 137.543 168.252 134.46 167.445 130.143L165.564 120.069L161.978 120.739L163.754 130.247C164.247 132.889 163.428 134.775 160.738 135.278C158.19 135.754 156.625 134.435 156.11 131.674L154.334 122.167L150.748 122.837L152.63 132.91C153.414 137.11 156.781 139.191 161.311 138.345ZM172.43 135.877L176.016 135.208L174.932 129.404L178.777 128.686C182.292 128.029 184.33 125.475 183.718 122.196C183.105 118.917 180.292 117.318 176.753 117.979L169.345 119.363L172.43 135.877ZM174.376 126.431L173.486 121.666L176.671 121.071C178.37 120.754 179.717 121.43 179.99 122.892C180.276 124.426 179.26 125.519 177.561 125.836L174.376 126.431Z"
                fill="black"></path>
     </symbol>

     <symbol id="lilac-hourglass"
             viewBox="0 0 214 160">
         <path d="M0 0L41.2513 -4.50788e-08C84.6395 -9.24927e-08 119.812 35.173 119.812 78.5612L119.812 81.1889C119.812 124.577 84.6395 159.75 41.2513 159.75L-1.70315e-07 159.75L0 0Z" fill="#C7B9FF"></path><path d="M213.002 159.75L171.751 159.75C128.362 159.75 93.1895 124.577 93.1895 81.1888L93.1895 78.5611C93.1895 35.173 128.362 -4.1209e-06 171.751 -2.74175e-06L213.002 -1.43051e-06L213.002 159.75Z" fill="#C7B9FF"></path><path d="M77.2926 84.384C82.9566 84.384 86.2686 80.688 86.2686 75.648C86.2686 70.632 82.8846 66.816 77.2926 66.816C71.7006 66.816 68.3166 70.632 68.3166 75.648C68.3166 80.688 71.6286 84.384 77.2926 84.384ZM77.3166 81.36C74.0286 81.36 72.1326 78.912 72.1326 75.624C72.1326 72.288 74.0286 69.84 77.3166 69.84C80.5806 69.84 82.4526 72.288 82.4526 75.624C82.4526 78.912 80.5806 81.36 77.3166 81.36ZM89.2933 84H92.9413V76.872H100.141V84H103.789V67.2H100.141V73.848H92.9413V67.2H89.2933V84ZM113.481 84H117.129V76.872H124.329V84H127.977V67.2H124.329V73.848H117.129V67.2L113.481 67.2V84ZM132.02 84H135.668V67.2H132.02V84Z" fill="#C7B9FF"></path><path d="M32.0473 87H44.7433V83.904H35.6953V70.2H32.0473V87ZM54.4293 87.384C60.0933 87.384 63.4053 83.688 63.4053 78.648C63.4053 73.632 60.0213 69.816 54.4293 69.816C48.8373 69.816 45.4533 73.632 45.4533 78.648C45.4533 83.688 48.7653 87.384 54.4293 87.384ZM54.4533 84.36C51.1653 84.36 49.2693 81.912 49.2693 78.624C49.2693 75.288 51.1653 72.84 54.4533 72.84C57.7173 72.84 59.5893 75.288 59.5893 78.624C59.5893 81.912 57.7173 84.36 54.4533 84.36ZM74.3981 87.384C80.0621 87.384 83.3741 83.688 83.3741 78.648C83.3741 73.632 79.9901 69.816 74.3981 69.816C68.8061 69.816 65.4221 73.632 65.4221 78.648C65.4221 83.688 68.7341 87.384 74.3981 87.384ZM74.4221 84.36C71.1341 84.36 69.2381 81.912 69.2381 78.624C69.2381 75.288 71.1341 72.84 74.4221 72.84C77.6861 72.84 79.5581 75.288 79.5581 78.624C79.5581 81.912 77.6861 84.36 74.4221 84.36ZM97.3188 87H101.903L94.5828 76.92L101.087 70.2H96.1908L90.0468 77.184V72.912V70.2H86.3988V87H90.0468V81.624L92.0868 79.512L97.3188 87ZM115.647 87.384C119.031 87.384 120.447 85.704 121.143 84.624V87H124.431V78.36H115.431V81.384H120.855C120.639 82.752 119.367 84.384 116.511 84.384C113.775 84.384 111.495 82.32 111.495 78.672C111.495 75 113.631 72.84 116.607 72.84C119.223 72.84 120.447 74.376 121.095 76.224L124.527 74.952C123.639 72.216 121.167 69.816 116.607 69.816C111.519 69.816 107.703 73.68 107.703 78.672C107.703 84.288 111.471 87.384 115.647 87.384ZM135.781 87.384C141.445 87.384 144.757 83.688 144.757 78.648C144.757 73.632 141.373 69.816 135.781 69.816C130.189 69.816 126.805 73.632 126.805 78.648C126.805 83.688 130.117 87.384 135.781 87.384ZM135.805 84.36C132.517 84.36 130.621 81.912 130.621 78.624C130.621 75.288 132.517 72.84 135.805 72.84C139.069 72.84 140.941 75.288 140.941 78.624C140.941 81.912 139.069 84.36 135.805 84.36ZM155.75 87.384C161.414 87.384 164.726 83.688 164.726 78.648C164.726 73.632 161.342 69.816 155.75 69.816C150.158 69.816 146.774 73.632 146.774 78.648C146.774 83.688 150.086 87.384 155.75 87.384ZM155.774 84.36C152.486 84.36 150.59 81.912 150.59 78.624C150.59 75.288 152.486 72.84 155.774 72.84C159.038 72.84 160.91 75.288 160.91 78.624C160.91 81.912 159.038 84.36 155.774 84.36ZM167.75 87H174.086C178.886 87 182.966 83.88 182.966 78.48C182.966 73.224 178.886 70.2 174.086 70.2H167.75V87ZM171.398 83.976V73.224H174.062C177.518 73.224 179.198 75.36 179.198 78.552C179.198 82.104 177.494 83.976 173.918 83.976H171.398Z" fill="black"></path>
      </symbol>

</svg>