<svg xmlns="http://www.w3.org/2000/svg">

      <symbol id="burst"
              viewBox="0 0 38 37">
            <!-- width="38" height="37"fill="none" -->
            <path d="M15.8516 0H22.0182L19.9627 18.5H17.9071L15.8516 0Z"
                  fill="#C7B9FF" />
            <path d="M22.0195 37L15.8529 37L17.9084 18.5L19.964 18.5L22.0195 37Z"
                  fill="#C7B9FF" />
            <path d="M8.03516 33.7617L3.67466 29.4012L18.2096 17.7732L19.6631 19.2267L8.03516 33.7617Z"
                  fill="#C7B9FF" />
            <path d="M29.8369 3.2383L34.1974 7.59879L19.6624 19.2268L18.2089 17.7733L29.8369 3.2383Z"
                  fill="#C7B9FF" />
            <path d="M3.67578 7.59872L8.03627 3.23823L19.6643 17.7732L18.2108 19.2267L3.67578 7.59872Z"
                  fill="#C7B9FF" />
            <path d="M34.1992 29.4013L29.8387 33.7618L18.2107 19.2268L19.6642 17.7733L34.1992 29.4013Z"
                  fill="#C7B9FF" />
            <path d="M0.4375 21.5833L0.4375 15.4167L18.9375 17.4722L18.9375 19.5278L0.4375 21.5833Z"
                  fill="#C7B9FF" />
            <path d="M37.4375 15.4167L37.4375 21.5834L18.9375 19.5279L18.9375 17.4723L37.4375 15.4167Z"
                  fill="#C7B9FF" />
      </symbol>

      <symbol id="hourglass"
              viewBox="0 0 38 33">
            <!-- width="38" height="33"  fill="none" -->
            <path d="M0.4375 4.125V0H37.5625V4.125C29.3125 4.125 23.125 10.3125 23.125 16.5C23.125 22.6875 29.3125 28.875 37.5625 28.875V33H0.4375V28.875C8.68751 28.875 14.875 22.6875 14.875 16.5C14.875 10.3125 8.68751 4.125 0.4375 4.125Z"
                  fill="#F24E1E" />
      </symbol>

      <symbol id="hourglass-two"
              viewBox="0 0 23 24">
            <!-- width="23" height="24" fill="none" -->
            <rect x="11.3115"
                  y="0.850098"
                  width="15.7684"
                  height="15.7684"
                  transform="rotate(45 11.3115 0.850098)"
                  fill="white" />
      </symbol>
      <symbol id="zag"
              height="36"
              viewBox="0 0 37 36">
            <!-- width="37" fill="none"  -->
            <path d="M6.40918 -1.31134e-06L22.4092 -6.11959e-07L36.4092 10L16.4092 24L30.4092 36L14.4092 36L0.409179 24L20.4092 10L6.40918 -1.31134e-06Z"
                  fill="#F24E1E" />
      </symbol>

      <symbol id="dots"
              viewBox="0 0 39 38">
            <!-- width="39" height="38" fill="none" -->
            <circle cx="29.963"
                    cy="8.44444"
                    r="6.33333"
                    stroke="#0FA958"
                    stroke-width="4.22222" />
            <circle cx="8.85362"
                    cy="29.5556"
                    r="6.33333"
                    stroke="#0FA958"
                    stroke-width="4.22222" />
            <rect x="23.6297"
                  y="23.2222"
                  width="12.6667"
                  height="12.6667"
                  stroke="#0FA958"
                  stroke-width="4.22222" />
            <rect x="2.52029"
                  y="2.11111"
                  width="12.6667"
                  height="12.6667"
                  stroke="#0FA958"
                  stroke-width="4.22222" />
      </symbol>

      <symbol id="sun"
              viewBox="0 0 38 38">
            <!-- width="38"   height="38"  -->
            <rect x="16.9346"
                  y="0.407898"
                  width="4.13158"
                  height="10.3289"
                  fill="#FFC700" />
            <rect x="16.9346"
                  y="27.2631"
                  width="4.13158"
                  height="10.3289"
                  fill="#FFC700" />
            <rect x="4.13379"
                  y="7.02464"
                  width="4.08548"
                  height="10.9109"
                  transform="rotate(-45 4.13379 7.02464)"
                  fill="#FFC700" />
            <rect x="23.1289"
                  y="26.0205"
                  width="4.08548"
                  height="10.9109"
                  transform="rotate(-45 23.1289 26.0205)"
                  fill="#FFC700" />
            <rect width="4.08548"
                  height="10.9109"
                  transform="matrix(-0.707107 -0.707107 -0.707107 0.707107 33.7354 7.02463)"
                  fill="#FFC700" />
            <rect width="4.08548"
                  height="10.9109"
                  transform="matrix(-0.707107 -0.707107 -0.707107 0.707107 14.7402 26.0205)"
                  fill="#FFC700" />
            <rect x="0.407227"
                  y="21.0658"
                  width="4.13158"
                  height="10.3289"
                  transform="rotate(-90 0.407227 21.0658)"
                  fill="#FFC700" />
            <rect x="27.2627"
                  y="21.0658"
                  width="4.13158"
                  height="10.3289"
                  transform="rotate(-90 27.2627 21.0658)"
                  fill="#FFC700" />
      </symbol>

      <symbol id="comet"
              viewBox="0 0 37 37">
            <!-- width="37" height="37" fill="none" -->
            <path d="M28.9048 3.28764L8.33205 18.0107C4.36762 20.8479 3.90156 26.5667 7.35429 30.0083C10.7984 33.4414 16.4987 32.9693 19.3312 29.0166L34.0668 8.45278C35.1128 6.99314 34.96 4.99325 33.7044 3.70948C32.4276 2.40412 30.3897 2.22499 28.9048 3.28764Z"
                  stroke="#C7B9FF"
                  stroke-width="4.13158" />
      </symbol>

      <symbol id="snake"
              viewBox="0 0 39 38">
            <!-- width="39" height="38" fill="none"  -->
            <path d="M19.4675 21.0658C13.2701 21.0658 11.2043 25.9062 11.2043 29.3289C11.2043 32.7517 13.2701 37.5921 19.4674 37.5921L33.928 37.5921L33.928 31.3947L19.4674 31.3947C18.3265 31.3947 17.4017 30.4699 17.4017 29.3289C17.4017 28.188 18.3265 27.2632 19.4674 27.2632L29.7964 27.2632C33.928 27.2632 38.0596 25.1974 38.0596 19C38.0596 12.8026 33.7214 10.7368 29.7964 10.7368L9.13852 10.7368C7.99762 10.7368 7.07274 9.81195 7.07274 8.67105C7.07274 7.53014 7.99762 6.60526 9.13852 6.60526L24.6319 6.60526C26.3433 6.60526 27.7306 5.21793 27.7306 3.50657C27.7306 1.79522 26.3433 0.40789 24.6319 0.40789L9.13852 0.40789C2.94115 0.40789 0.87537 5.24834 0.87537 8.67105C0.87537 12.0938 2.94115 16.9342 9.13852 16.9342L29.7964 16.9342C30.9373 16.9342 31.8622 17.8591 31.8622 19C31.8622 20.1409 30.9373 21.0658 29.7964 21.0658L19.4675 21.0658Z"
                  fill="#FFC700" />
      </symbol>

      <symbol id="tri"
              viewBox="0 0 38 34">
            <!-- width="38" height="34"fill="none"    -->
            <path d="M18.6517 4.68734L33.7116 31.4605H3.59176L18.6517 4.68734Z"
                  stroke="#0FA958"
                  stroke-width="4.13158" />
            <path d="M23.1959 25.2632H14.1064L18.6512 17.0001L23.1959 25.2632Z"
                  fill="#0FA958" />
      </symbol>


      <symbol id="arrow"
              viewBox="0 0 14.0 14.0">
            <!-- height="14.0px" width="14.0px"  -->
            <path d="M1 4.5 L7.0 10.5 L13.0 4.5"
                  fill="transparent"
                  stroke="#000000"
                  stroke-width="1px" />
      </symbol>

      <symbol id="scroll-up"
              viewBox="0 0 50 50">
            <!-- width="50" height="50"   fill="none"    -->
            <path fill-rule="evenodd"
                  clip-rule="evenodd"
                  d="M25 50C38.8071 50 50 38.8071 50 25C50 11.1929 38.8071 0 25 0C11.1929 0 0 11.1929 0 25C0 38.8071 11.1929 50 25 50ZM26.136 37.416H23.064L23.064 18.792C22.168 19.72 21.304 20.584 20.408 21.48L17.144 24.776L15 22.6L24.6 13L34.2 22.6L32.056 24.776L28.824 21.48C28.5254 21.1814 28.2267 20.8863 27.9281 20.5912C27.3307 20.0009 26.7334 19.4107 26.136 18.792V37.416Z"
                  fill="black" />
      </symbol>

      <symbol id="squiggle"
              viewBox='0 0 23 18'>
            <!-- width='23' height='18'  fill='none' -->
            <path d='M0.662109 17.3626V6.21266L6.23707 0.637695L15.9933 6.21266L22.962 0.637695V11.7876L15.9933 17.3626L6.23707 11.7876L0.662109 17.3626Z'
                  fill='white'></path>
      </symbol>

         <symbol id="drop"
              viewBox="0 0 19 19">
            <!-- width="19" height="19" fill="none" -->
            <path d="M0.199219 0.637695H9.25853C14.2619 0.637695 18.3179 4.69369 18.3179 9.69701C18.3179 14.7003 14.2619 18.7563 9.25853 18.7563C4.25521 18.7563 0.199219 14.7003 0.199219 9.69701V0.637695Z"
                  fill="white" />
      </symbol>

      <symbol id="drop-up"
              viewBox="0 0 26 18">
            <!-- width="26" height="18"   fill="none" -->
            <path d="M0.393555 17.3626V9.00014C0.393555 3.42518 3.18104 0.637695 7.36226 0.637695C12.9372 0.637697 15.7247 6.21266 19.9059 6.21266C22.6934 6.21266 24.0872 4.81892 24.0872 0.637695H25.4809V9.00014C25.4809 14.5751 22.6934 17.3626 18.5122 17.3626C12.9372 17.3626 10.1497 11.7876 5.96852 11.7876C3.45397 11.7876 1.7873 13.3207 1.7873 17.3626H0.393555Z"
                  fill="white" />
      </symbol>

      <symbol id="circle"
              viewBox="0 0 23 24">
            <!-- width="23" height="24"fill="none" -->
            <circle cx="11.687"
                    cy="12"
                    r="11.1499"
                    fill="white" />
      </symbol>

      <symbol id="hourglasswhite"
              viewBox="0 0 23 20">
            <!-- width="23" height="20"  fill="none" -->
            <path fill-rule="evenodd"
                  clip-rule="evenodd"
                  d="M0.286133 0.243652H11.4361H22.586C15.6173 5.66375 15.6173 14.3359 22.586 19.756H11.4361H0.286133C7.25484 14.3359 7.25484 5.66375 0.286133 0.243652Z"
                  fill="white" />
      </symbol>

           <symbol id="dash"
              viewBox="0 0 26 18">
            <!-- width="26" height="18" fill="none"   -->
            <path d="M0.393555 17.3626V9.00014C0.393555 3.42518 3.18104 0.637695 7.36226 0.637695C12.9372 0.637697 15.7247 6.21266 19.9059 6.21266C22.6934 6.21266 24.0872 4.81892 24.0872 0.637695H25.4809V9.00014C25.4809 14.5751 22.6934 17.3626 18.5122 17.3626C12.9372 17.3626 10.1497 11.7876 5.96852 11.7876C3.45397 11.7876 1.7873 13.3207 1.7873 17.3626H0.393555Z"
                  fill="white" />
      </symbol>

      
      <symbol id="diamond"
              viewBox="0 0 23 24">
            <!-- width="23" height="24"  fill="none"   -->
            <rect x="11.3115"
                  y="0.850098"
                  width="15.7684"
                  height="15.7684"
                  transform="rotate(45 11.3115 0.850098)"
                  fill="white" />
      </symbol>

      <symbol id="dough"
              viewBox="0 0 26 24">
            <!-- width="26" height="24" fill="none" -->
            <ellipse cx="13.1858"
                     cy="17.2961"
                     rx="5.85371"
                     ry="12.5437"
                     transform="rotate(90 13.1858 17.2961)"
                     fill="white" />
            <ellipse cx="13.1858"
                     cy="6.70381"
                     rx="5.85371"
                     ry="12.5437"
                     transform="rotate(90 13.1858 6.70381)"
                     fill="white" />
      </symbol>

      <symbol id="cylinder"
              viewBox="0 0 20 24">
            <!-- width="20" height="24" v fill="none" -->
            <path d="M19.818 0.850098H0.305664L3.86452 7.8188L0.305664 12L3.86452 16.1812L0.305664 23.15H19.818L16.1365 16.1812L19.818 12L16.1365 7.8188L19.818 0.850098Z"
                  fill="white" />
      </symbol>

      <symbol id="square"
              viewBox="0 0 20 20">
            <!-- width="20" height="20" fill="none" -->
            <rect x="0.180664"
                  y="0.243652"
                  width="19.5124"
                  height="19.5124"
                  rx="5.57496"
                  fill="white" />
      </symbol>

 
</svg>